<?xml version="1.0" encoding="UTF-8" standalone="no"?>
<svg xmlns:dc="http://purl.org/dc/elements/1.1/" xmlns:cc="http://creativecommons.org/ns#" xmlns:rdf="http://www.w3.org/1999/02/22-rdf-syntax-ns#" xmlns:svg="http://www.w3.org/2000/svg" xmlns="http://www.w3.org/2000/svg" xmlns:sodipodi="http://sodipodi.sourceforge.net/DTD/sodipodi-0.dtd" xmlns:inkscape="http://www.inkscape.org/namespaces/inkscape" width="499.99994" height="560" viewBox="0 0 132.29165 148.16667" version="1.1" id="svg847" sodipodi:docname="Haabersti.svg" inkscape:version="1.0.2 (e86c870879, 2021-01-15, custom)">
  <defs id="defs841"/>
  <sodipodi:namedview id="base" pagecolor="#ffffff" bordercolor="#666666" borderopacity="1.0" inkscape:pageopacity="0.0" inkscape:pageshadow="2" inkscape:zoom="0.49497475" inkscape:cx="98.794104" inkscape:cy="179.27426" inkscape:document-units="px" inkscape:current-layer="layer1" inkscape:document-rotation="0" showgrid="false" inkscape:snap-smooth-nodes="true" inkscape:showpageshadow="false" borderlayer="true" units="px" inkscape:window-width="1920" inkscape:window-height="1017" inkscape:window-x="-8" inkscape:window-y="-4" inkscape:window-maximized="1"/>
  <metadata id="metadata844">
    <rdf:RDF>
      <cc:Work rdf:about="">
        <dc:format>image/svg+xml</dc:format>
        <dc:type rdf:resource="http://purl.org/dc/dcmitype/StillImage"/>
        <dc:title/>
      </cc:Work>
    </rdf:RDF>
  </metadata>
  <g inkscape:label="Layer 1" inkscape:groupmode="layer" id="layer1" transform="translate(-38.584697,-38.558016)">
    <g id="g931" transform="matrix(1.8549756,0,0,1.8542898,-138.84022,-85.203188)" style="stroke-width:0.285322;stroke-miterlimit:4;stroke-dasharray:none">
      <path id="path846" style="font-variation-settings:normal;opacity:1;vector-effect:none;fill:#ffffff;fill-opacity:1;stroke:#000000;stroke-width:0.285321;stroke-linecap:butt;stroke-linejoin:miter;stroke-miterlimit:4;stroke-dasharray:none;stroke-dashoffset:0;stroke-opacity:1;stop-color:#000000;stop-opacity:1" d="m 164.18842,92.253167 c 1.44741,-13.861659 2.61896,-25.367323 2.61896,-25.367323 H 95.806024 c 0,0 1.170511,11.505664 2.61793,25.367323 l 2.153606,1.225052 h 61.45724 z" sodipodi:nodetypes="ccccccc"/>
      <path id="path852" style="font-variation-settings:normal;opacity:1;vector-effect:none;fill:#078930;fill-opacity:1;stroke:#000000;stroke-width:0.285321;stroke-linecap:butt;stroke-linejoin:miter;stroke-miterlimit:4;stroke-dasharray:none;stroke-dashoffset:0;stroke-opacity:1;stop-color:#000000;stop-opacity:1" d="m 111.04437,87.933129 c -5.25553,0 -4.87509,4.787317 -10.13064,4.787317 -1.013136,0 -1.81476,-0.180022 -2.489776,-0.467279 0.9574,9.168813 2.015986,19.196323 3.008606,28.222593 2.49326,22.67239 23.88797,26.02957 29.87414,26.02957 5.98618,0 27.38089,-3.35718 29.87414,-26.02957 0.99261,-9.02627 2.05018,-19.05378 3.00758,-28.222593 -0.67501,0.287235 -1.47565,0.467279 -2.48874,0.467279 -5.25553,0 -4.87617,-4.787317 -10.13168,-4.787317 -5.25555,0 -4.87513,4.787317 -10.13066,4.787317 -5.25555,0 -4.87511,-4.787317 -10.13064,-4.787317 -5.25555,0 -4.87619,4.787317 -10.13168,4.787317 -5.25555,0 -4.8751,-4.787317 -10.13065,-4.787317 z"/>
      <path id="path871" style="opacity:1;fill:#ffffff;stroke:#000000;stroke-width:0.285321;stroke-linejoin:round;stroke-miterlimit:4;stroke-dasharray:none;paint-order:fill markers stroke" d="m 131.29637,96.085092 a 21.849283,21.849283 0 0 0 -21.83949,21.848798 21.849283,21.849283 0 0 0 21.84982,21.84982 21.849283,21.849283 0 0 0 21.8488,-21.84982 21.849283,21.849283 0 0 0 -21.8488,-21.848798 21.849283,21.849283 0 0 0 -0.0103,0 z m 0.0103,8.860438 a 12.988523,12.988523 0 0 1 12.98836,12.98836 12.988523,12.988523 0 0 1 -12.98836,12.98835 12.988523,12.988523 0 0 1 -12.98939,-12.98835 12.988523,12.988523 0 0 1 12.98939,-12.98836 z"/>
    </g>
  </g>
<script xmlns=""/></svg>