<?xml version="1.0" encoding="UTF-8" standalone="no"?>
<svg xmlns:dc="http://purl.org/dc/elements/1.1/" xmlns:cc="http://creativecommons.org/ns#" xmlns:rdf="http://www.w3.org/1999/02/22-rdf-syntax-ns#" xmlns:svg="http://www.w3.org/2000/svg" xmlns="http://www.w3.org/2000/svg" xmlns:sodipodi="http://sodipodi.sourceforge.net/DTD/sodipodi-0.dtd" xmlns:inkscape="http://www.inkscape.org/namespaces/inkscape" width="500" height="670" viewBox="0 0 132.29167 177.27084" version="1.1" id="svg847" sodipodi:docname="keskilinn.svg" inkscape:version="1.0.2 (e86c870879, 2021-01-15, custom)">
  <defs id="defs841"/>
  <sodipodi:namedview id="base" pagecolor="#ffffff" bordercolor="#666666" borderopacity="1.0" inkscape:pageopacity="0.0" inkscape:pageshadow="2" inkscape:zoom="0.54606154" inkscape:cx="200.74107" inkscape:cy="143.56936" inkscape:document-units="px" inkscape:current-layer="g1557" inkscape:document-rotation="0" showgrid="false" inkscape:snap-smooth-nodes="true" inkscape:showpageshadow="false" borderlayer="true" units="px" inkscape:window-width="1920" inkscape:window-height="1017" inkscape:window-x="-8" inkscape:window-y="-4" inkscape:window-maximized="1" inkscape:snap-global="true" showguides="true"/>
  <metadata id="metadata844">
    <rdf:RDF>
      <cc:Work rdf:about="">
        <dc:format>image/svg+xml</dc:format>
        <dc:type rdf:resource="http://purl.org/dc/dcmitype/StillImage"/>
        <dc:title/>
      </cc:Work>
    </rdf:RDF>
  </metadata>
  <g inkscape:label="Layer 1" inkscape:groupmode="layer" id="layer1" transform="translate(-497.40923,-40.677453)">
    <g id="g2546" transform="matrix(1.009346,0,0,1.0093405,-3.3297001,-0.42175862)" style="stroke-width:0.990743">
      <g id="g1557" transform="matrix(1.7132,0,0,1.7132,-451.51765,-88.264749)" style="stroke-width:0.5783">
        <path style="font-variation-settings:normal;vector-effect:none;fill:#e4351f;fill-opacity:1;stroke:none;stroke-width:0.306017;stroke-linecap:butt;stroke-linejoin:miter;stroke-miterlimit:4;stroke-dasharray:none;stroke-dashoffset:0;stroke-opacity:1;stop-color:#000000" d="m 614.09085,165.76884 c 10.85607,-7.16264 15.54184,-14.0077 15.54184,-26.29672 V 79.475761 c 0,0 -16.98089,-4.18763 -38.25202,-4.18763 -21.27113,0 -38.25202,4.18763 -38.25202,4.18763 v 59.996359 c 0,12.28902 4.68577,19.13408 15.54184,26.29672 10.85608,7.16265 22.71018,12.03526 22.71018,12.03526 0,0 11.8541,-4.87261 22.71018,-12.03526 z" id="path897" sodipodi:nodetypes="zzcsczzcz"/>
        <path id="path946" style="font-variation-settings:normal;vector-effect:none;fill:#ffffff;fill-opacity:1;stroke:none;stroke-width:0.306015;stroke-linecap:butt;stroke-linejoin:miter;stroke-miterlimit:4;stroke-dasharray:none;stroke-dashoffset:0;stroke-opacity:1;stop-color:#000000" d="m 591.38067,75.736495 c -1.94641,0 -3.85601,0.03603 -5.72086,0.09984 v 32.641935 h -32.0069 v 11.44177 h 32.0069 v 54.8548 c 3.45589,1.64842 5.72086,2.5809 5.72086,2.5809 0,0 2.26498,-0.93248 5.72086,-2.5809 v -54.8548 h 32.0069 v -11.44177 h -32.0069 V 75.836332 c -1.86484,-0.0638 -3.77445,-0.09984 -5.72086,-0.09984 z" sodipodi:nodetypes="scccccccccccccs"/>
        <path id="path912" style="opacity:1;fill:#ffffff;stroke:#e4351f;stroke-width:0.459026;stroke-linejoin:round;stroke-miterlimit:4;stroke-dasharray:none;stroke-opacity:1;paint-order:fill markers stroke" d="m 615.0792,114.19918 a 23.698524,23.69865 0 0 1 -23.69852,23.69865 23.698524,23.69865 0 0 1 -23.69853,-23.69865 23.698524,23.69865 0 0 1 23.69853,-23.69865 23.698524,23.69865 0 0 1 23.69852,23.69865 z"/>
        <path id="ellipse914" style="opacity:1;fill:none;stroke:#e4351f;stroke-width:0.459026;stroke-linejoin:round;stroke-miterlimit:4;stroke-dasharray:none;stroke-opacity:1;paint-order:fill markers stroke" d="m 570.27331,114.19918 a -21.107367,-21.107481 0 0 1 21.10737,-21.10748 -21.107367,-21.107481 0 0 1 21.10736,21.10748 -21.107367,-21.107481 0 0 1 -21.10736,21.10748 -21.107367,-21.107481 0 0 1 -21.10737,-21.10748 z"/>
        <path id="ellipse916" style="opacity:1;fill:none;stroke:#e4351f;stroke-width:0.459025;stroke-linejoin:miter;stroke-miterlimit:4;stroke-dasharray:none;stroke-opacity:1;paint-order:fill markers stroke" d="m 591.36838,93.091666 c -5.39556,0.0069 -9.7659,4.382754 -9.766,9.778344 4e-5,0.56985 0.0499,1.13861 0.14898,1.69978 -0.56117,-0.0991 -1.12992,-0.14894 -1.69977,-0.14898 -5.40036,1e-4 -9.77819,4.37795 -9.77829,9.77834 1e-4,5.40039 4.37793,9.77825 9.77829,9.77835 0.56985,-4e-5 1.1386,-0.0499 1.69977,-0.14898 -0.0991,0.56117 -0.14894,1.12992 -0.14898,1.69978 10e-5,5.40039 4.37793,9.77824 9.77829,9.77834 5.40036,-10e-5 9.77819,-4.37795 9.77829,-9.77834 -4e-5,-0.56986 -0.0499,-1.13861 -0.14898,-1.69978 0.56117,0.0991 1.12992,0.14894 1.69977,0.14898 5.40036,-1e-4 9.77819,-4.37796 9.77829,-9.77835 -10e-5,-5.40039 -4.37793,-9.77824 -9.77829,-9.77834 -0.56985,4e-5 -1.1386,0.0499 -1.69977,0.14898 0.0991,-0.56117 0.14894,-1.12993 0.14898,-1.69978 -10e-5,-5.400385 -4.37793,-9.778239 -9.77829,-9.778344 z" sodipodi:nodetypes="sccccccccscccsccss"/>
        <path id="ellipse918" style="opacity:1;fill:#e4351f;fill-opacity:1;stroke:none;stroke-width:0.306017;stroke-linejoin:round;stroke-miterlimit:4;stroke-dasharray:none;paint-order:fill markers stroke" d="m 591.38067,94.62147 c 4.55551,1.5e-5 8.24848,3.693005 8.2485,8.24854 10e-6,1.50717 -0.41292,2.98553 -1.19394,4.27454 1.28901,-0.78102 2.76736,-1.19395 4.27452,-1.19394 4.55551,2e-5 8.24848,3.693 8.2485,8.24854 -2e-5,4.55554 -3.69299,8.24853 -8.2485,8.24855 -1.50738,-5e-5 -2.98593,-0.41316 -4.27503,-1.19445 0.78129,1.2891 1.1944,2.76766 1.19445,4.27505 -2e-5,4.55553 -3.69299,8.24853 -8.2485,8.24854 -4.55552,-1e-5 -8.24848,-3.69301 -8.2485,-8.24854 5e-5,-1.50739 0.41316,-2.98595 1.19445,-4.27505 -1.2891,0.78129 -2.76765,1.1944 -4.27503,1.19445 -4.55552,-2e-5 -8.24848,-3.69301 -8.2485,-8.24855 2e-5,-4.55553 3.69299,-8.24852 8.2485,-8.24854 1.50738,5e-5 2.98593,0.41316 4.27503,1.19446 -0.78129,-1.28911 -1.1944,-2.76767 -1.19445,-4.27506 2e-5,-4.555535 3.69299,-8.248525 8.2485,-8.24854 z" sodipodi:nodetypes="sscsscccscccscccs"/>
        <path style="font-variation-settings:normal;opacity:1;vector-effect:none;fill:#f8df07;fill-opacity:1;stroke:none;stroke-width:0.153008;stroke-linecap:butt;stroke-linejoin:miter;stroke-miterlimit:4;stroke-dasharray:none;stroke-dashoffset:0;stroke-opacity:1;stop-color:#000000;stop-opacity:1" d="m 585.39436,116.19608 c -1.32029,-2.41098 -1.83135,-5.33001 0.70011,-6.87374 2.53145,-1.54373 4.60058,0.20905 5.2862,1.27292 0.68562,-1.06387 2.75475,-2.81665 5.2862,-1.27292 2.53146,1.54373 2.0204,4.46276 0.70011,6.87374 -1.3203,2.41099 -4.3279,5.72812 -5.98631,5.72812 -1.65841,0 -4.66601,-3.31713 -5.98631,-5.72812 z" id="path940" sodipodi:nodetypes="szczszs"/>
      </g>
    </g>
  </g>
<script xmlns=""/></svg>