<?xml version="1.0" encoding="UTF-8" standalone="no"?>
<svg xmlns:dc="http://purl.org/dc/elements/1.1/" xmlns:cc="http://creativecommons.org/ns#" xmlns:rdf="http://www.w3.org/1999/02/22-rdf-syntax-ns#" xmlns:svg="http://www.w3.org/2000/svg" xmlns="http://www.w3.org/2000/svg" xmlns:sodipodi="http://sodipodi.sourceforge.net/DTD/sodipodi-0.dtd" xmlns:inkscape="http://www.inkscape.org/namespaces/inkscape" width="500" height="720" viewBox="0 0 132.29167 190.5" version="1.1" id="svg847" sodipodi:docname="Kristiine.svg" inkscape:version="1.0.2 (e86c870879, 2021-01-15, custom)">
  <defs id="defs841"/>
  <sodipodi:namedview id="base" pagecolor="#ffffff" bordercolor="#666666" borderopacity="1.0" inkscape:pageopacity="0.0" inkscape:pageshadow="2" inkscape:zoom="0.35" inkscape:cx="-501.69691" inkscape:cy="312.37288" inkscape:document-units="px" inkscape:current-layer="layer1" inkscape:document-rotation="0" showgrid="false" inkscape:snap-smooth-nodes="true" inkscape:showpageshadow="false" borderlayer="true" units="px" inkscape:window-width="1920" inkscape:window-height="1017" inkscape:window-x="-8" inkscape:window-y="-4" inkscape:window-maximized="1" inkscape:snap-global="true" showguides="true"/>
  <metadata id="metadata844">
    <rdf:RDF>
      <cc:Work rdf:about="">
        <dc:format>image/svg+xml</dc:format>
        <dc:type rdf:resource="http://purl.org/dc/dcmitype/StillImage"/>
        <dc:title/>
      </cc:Work>
    </rdf:RDF>
  </metadata>
  <g inkscape:label="Layer 1" inkscape:groupmode="layer" id="layer1" transform="translate(-584.39929,-6.1700042)">
    <g id="g1669" transform="matrix(1.0040161,0,0,1.0015228,-2.3469894,-0.00939582)" style="stroke-width:0.997241">
      <path style="font-variation-settings:normal;vector-effect:none;fill:#e83634;fill-opacity:1;stroke:none;stroke-width:0.527706;stroke-linecap:butt;stroke-linejoin:miter;stroke-miterlimit:4;stroke-dasharray:none;stroke-dashoffset:0;stroke-opacity:1;stop-color:#000000" d="M 716.16177,18.998942 V 154.89927 c 0,12.71558 -13.1232,19.6832 -26.15509,26.21134 -13.48114,6.7532 -39.72616,15.26974 -39.72616,15.26974 0,0 -26.24502,-8.51654 -39.72616,-15.26974 -13.03189,-6.52814 -26.15509,-13.49576 -26.15509,-26.21134 V 18.998942 c 0,0 29.48828,-12.8289377 65.88125,-12.8289377 36.39297,0 65.88125,12.8289377 65.88125,12.8289377 z" id="path1685" sodipodi:nodetypes="csscssczc"/>
      <path id="path1609" style="font-variation-settings:normal;vector-effect:none;fill:#ffffff;fill-opacity:1;stroke:none;stroke-width:0.527706;stroke-linecap:butt;stroke-linejoin:miter;stroke-miterlimit:4;stroke-dasharray:none;stroke-dashoffset:0;stroke-opacity:1;stop-color:#000000" d="m 650.28052,6.9765661 c -5.06077,0 -9.9862,0.2515145 -14.71441,0.6835539 v 68.105198 h -50.36407 v 29.428522 h 50.36407 v 85.33505 c 8.18603,2.95638 14.71441,5.07776 14.71441,5.07776 0,0 6.52868,-2.1213 14.71493,-5.07776 V 105.19384 H 715.359 V 75.765318 H 664.99545 V 7.66012 C 660.26708,7.2280518 655.34148,6.9765661 650.28052,6.9765661 Z" sodipodi:nodetypes="scccccccccccccs"/>
      <path style="font-variation-settings:normal;opacity:1;vector-effect:none;fill:#ffffff;fill-opacity:1;stroke:none;stroke-width:0.527706;stroke-linecap:butt;stroke-linejoin:miter;stroke-miterlimit:4;stroke-dasharray:none;stroke-dashoffset:0;stroke-opacity:1;stop-color:#000000;stop-opacity:1" d="m 606.62346,51.099418 c -0.74478,-0.608572 -2.02419,-0.219351 -7.47077,5.728354 -5.44657,5.947705 -9.25909,4.574464 -10.67209,0.791735 -1.413,-3.782729 0.86252,-8.233054 2.26786,-9.638392 0,0 -5.38616,-2.55134 -4.11049,-8.362724 1.27567,-5.811384 8.66576,-5.622541 11.72299,-0.950672 2.90799,4.44381 3.49194,5.386156 4.97518,5.403356 0,0 0.49013,-1.236738 -1.61462,-4.043068 -2.10475,-2.80633 -3.70836,-7.617182 -2.90655,-12.027129 0.8018,-4.409948 4.6104,-4.6104 7.11605,-4.810852 2.50565,-0.200452 4.81085,2.505652 4.81085,5.512434 0,0 4.20949,-5.61266 8.21854,-2.204973 4.00904,3.407686 1.50339,8.118312 -2.80633,11.525998 -4.30972,3.407687 -4.40995,4.409947 -4.40995,5.512434 0,0 1.60362,-0.400904 4.6104,-3.207234 3.00679,-2.80633 5.21176,-5.512434 8.71967,-6.614921 3.50791,-1.102487 6.37919,1.767974 5.81311,6.013564 -0.56608,4.245591 -2.40543,6.514695 -5.21176,7.617182 0,0 5.31199,1.703843 3.30746,7.116051 -2.00452,5.412208 -7.07996,6.292204 -11.22531,2.80633 -4.14537,-3.485873 -5.21176,-7.516956 -7.31651,-7.216277 -2.10475,0.300678 -1.70384,6.614921 -1.40316,10.022608 0.30067,3.407686 1.30293,8.519216 -0.90204,8.519216 -2.20497,0 -1.73928,-3.311626 -1.10249,-7.316504 0.73881,-4.646494 0.33474,-9.567944 -0.41004,-10.176516 z" id="path1617" sodipodi:nodetypes="zszczzcssscsscszscsszsssz"/>
    </g>
  </g>
<script xmlns=""/></svg>