<?xml version="1.0" encoding="UTF-8" standalone="no"?>
<svg xmlns:dc="http://purl.org/dc/elements/1.1/" xmlns:cc="http://creativecommons.org/ns#" xmlns:rdf="http://www.w3.org/1999/02/22-rdf-syntax-ns#" xmlns:svg="http://www.w3.org/2000/svg" xmlns="http://www.w3.org/2000/svg" xmlns:sodipodi="http://sodipodi.sourceforge.net/DTD/sodipodi-0.dtd" xmlns:inkscape="http://www.inkscape.org/namespaces/inkscape" width="499.99994" height="560" viewBox="0 0 132.29165 148.16667" version="1.1" id="svg847" sodipodi:docname="Lasnamäe.svg" inkscape:version="1.0.2 (e86c870879, 2021-01-15, custom)">
  <defs id="defs841"/>
  <sodipodi:namedview id="base" pagecolor="#ffffff" bordercolor="#666666" borderopacity="1.0" inkscape:pageopacity="0.0" inkscape:pageshadow="2" inkscape:zoom="0.7" inkscape:cx="889.21511" inkscape:cy="217.63687" inkscape:document-units="px" inkscape:current-layer="layer1" inkscape:document-rotation="0" showgrid="false" inkscape:snap-smooth-nodes="true" inkscape:showpageshadow="false" borderlayer="true" units="px" inkscape:window-width="1920" inkscape:window-height="1017" inkscape:window-x="-8" inkscape:window-y="-4" inkscape:window-maximized="1" inkscape:snap-global="true" showguides="true"/>
  <metadata id="metadata844">
    <rdf:RDF>
      <cc:Work rdf:about="">
        <dc:format>image/svg+xml</dc:format>
        <dc:type rdf:resource="http://purl.org/dc/dcmitype/StillImage"/>
        <dc:title/>
      </cc:Work>
    </rdf:RDF>
  </metadata>
  <g inkscape:label="Layer 1" inkscape:groupmode="layer" id="layer1" transform="translate(-195.57434,-42.547709)">
    <g id="g1126" transform="matrix(1.0628837,0,0,1.0482776,-18.341364,-10.387492)" style="stroke-width:0.501316;stroke-miterlimit:4;stroke-dasharray:none">
      <path id="path949" style="font-variation-settings:normal;opacity:1;vector-effect:none;fill:#ffffff;fill-opacity:1;stroke:none;stroke-width:1.89474;stroke-linecap:butt;stroke-linejoin:miter;stroke-miterlimit:4;stroke-dasharray:none;stroke-dashoffset:0;stroke-opacity:1;stop-color:#000000;stop-opacity:1" d="m 1084.2852,150.06836 c 0.3326,-60.071039 -3.4844,-103.996094 -3.4844,-103.996094 H 850.04297 V 188.50195 l 191.18873,14.65193 z m -468.48247,0 c 0.38528,69.58085 6.33899,160.83476 30.2793,230.75391 45.68194,133.41717 203.96094,197.49023 203.96094,197.49023 V 188.50195 l -70.87158,-52.091 z" transform="matrix(0.26458334,0,0,0.26458334,38.584697,38.558016)" sodipodi:nodetypes="cccccccscccc"/>
      <path id="path1006" style="font-variation-settings:normal;opacity:1;vector-effect:none;fill:#0f47af;fill-opacity:1;stroke:none;stroke-width:1.89474;stroke-linecap:butt;stroke-linejoin:miter;stroke-miterlimit:4;stroke-dasharray:none;stroke-dashoffset:0;stroke-opacity:1;stop-color:#000000;stop-opacity:1" d="m 619.28516,46.072266 c 0,0 -3.81504,43.925054 -3.48243,103.996094 27.46756,2.56693 48.01763,38.43303 76.01954,38.43359 29.04098,5.9e-4 50.07425,-38.58457 79.11523,-38.58398 29.04098,6e-4 50.0657,38.58397 79.10547,38.58398 V 46.072266 Z M 850.04297,188.50195 V 578.3125 c 0,0 158.27903,-64.07306 203.96093,-197.49023 23.9403,-69.91915 29.896,-161.17306 30.2813,-230.75391 -27.4698,2.56545 -48.027,38.43416 -76.0293,38.43359 -29.04102,-5.8e-4 -50.06509,-38.58428 -79.10551,-38.58398 -29.04041,3e-4 -50.06765,38.58399 -79.10742,38.58398 z" transform="matrix(0.26458334,0,0,0.26458334,38.584697,38.558016)"/>
      <path id="path1095" style="font-variation-settings:normal;opacity:1;vector-effect:none;fill:none;fill-opacity:1;stroke:#000000;stroke-width:1.89474;stroke-linecap:butt;stroke-linejoin:miter;stroke-miterlimit:4;stroke-dasharray:none;stroke-dashoffset:0;stroke-opacity:1;stop-color:#000000;stop-opacity:1" d="m 619.28516,46.072266 c 0,0 -3.81504,43.925052 -3.48243,103.996094 0.38528,69.58085 6.33899,160.83475 30.2793,230.75391 45.68194,133.41717 203.96094,197.49023 203.96094,197.49023 0,0 158.27903,-64.07306 203.96093,-197.49023 23.9403,-69.91916 29.896,-161.17306 30.2813,-230.75391 0.3326,-60.071041 -3.4844,-103.996094 -3.4844,-103.996094 H 850.04297 Z" transform="matrix(0.26458334,0,0,0.26458334,38.584697,38.558016)"/>
      <path id="path1006-4" style="font-variation-settings:normal;vector-effect:none;fill:none;fill-opacity:1;stroke:#000000;stroke-width:0.501316;stroke-linecap:butt;stroke-linejoin:miter;stroke-miterlimit:4;stroke-dasharray:none;stroke-dashoffset:0;stroke-opacity:1;stop-color:#000000" d="m 201.51584,78.263604 c 7.26746,0.679167 12.70467,10.168739 20.1135,10.168888 7.68376,1.56e-4 13.24882,-10.208835 20.93258,-10.208679 7.68376,1.59e-4 13.24655,10.208676 20.92999,10.208679 V 50.74797 m 61.97659,27.515634 c -7.26805,0.678775 -12.70715,10.169038 -20.11609,10.168888 -7.68377,-1.54e-4 -13.24639,-10.208758 -20.93,-10.208679 -7.68361,8e-5 -13.24707,10.208681 -20.9305,10.208679 V 191.56987" sodipodi:nodetypes="csscccsscc"/>
      <path style="opacity:1;fill:#0f47af;fill-opacity:1;stroke:#000000;stroke-width:0.501316;stroke-linejoin:round;stroke-miterlimit:4;stroke-dasharray:none;paint-order:fill markers stroke" d="M 263.49191,189.73729 249.57142,153.18078 213.01491,139.26029 249.57142,125.3398 263.49191,88.783283 Z" id="path1053" sodipodi:nodetypes="cccccc"/>
      <path style="opacity:1;fill:#ffffff;fill-opacity:1;stroke:#000000;stroke-width:0.501316;stroke-linejoin:round;stroke-miterlimit:4;stroke-dasharray:none;paint-order:fill markers stroke" d="m 263.49191,88.783283 13.92049,36.556517 36.55651,13.92049 -36.55651,13.92049 -13.92049,36.55651 z" id="path1023" sodipodi:nodetypes="cccccc"/>
    </g>
  </g>
<script xmlns=""/></svg>