<?xml version="1.0" encoding="UTF-8" standalone="no"?>
<svg xmlns:dc="http://purl.org/dc/elements/1.1/" xmlns:cc="http://creativecommons.org/ns#" xmlns:rdf="http://www.w3.org/1999/02/22-rdf-syntax-ns#" xmlns:svg="http://www.w3.org/2000/svg" xmlns="http://www.w3.org/2000/svg" xmlns:sodipodi="http://sodipodi.sourceforge.net/DTD/sodipodi-0.dtd" xmlns:inkscape="http://www.inkscape.org/namespaces/inkscape" sodipodi:docname="рисунок.svg" inkscape:version="1.0 (4035a4fb49, 2020-05-01)" id="svg983" version="1.1" viewBox="0 0 197.38054 227.01759" height="227.01759mm" width="197.38054mm">
  <defs id="defs977"/>
  <sodipodi:namedview inkscape:window-maximized="1" inkscape:window-y="-8" inkscape:window-x="-8" inkscape:window-height="1017" inkscape:window-width="1920" fit-margin-bottom="0" fit-margin-right="0" fit-margin-left="0" fit-margin-top="0" showgrid="false" inkscape:document-rotation="0" inkscape:current-layer="layer1" inkscape:document-units="mm" inkscape:cy="429.00961" inkscape:cx="373.00259" inkscape:zoom="0.91489791" inkscape:pageshadow="2" inkscape:pageopacity="0.0" borderopacity="1.0" bordercolor="#666666" pagecolor="#ffffff" id="base"/>
  <metadata id="metadata980">
    <rdf:RDF>
      <cc:Work rdf:about="">
        <dc:format>image/svg+xml</dc:format>
        <dc:type rdf:resource="http://purl.org/dc/dcmitype/StillImage"/>
        <dc:title/>
      </cc:Work>
    </rdf:RDF>
  </metadata>
  <g transform="translate(-7.1430631,-34.657872)" id="layer1" inkscape:groupmode="layer" inkscape:label="Слой 1">
    <path id="path947" d="m 8.1438535,34.657892 a 1.0001,1.0001 0 0 0 -0.99804,1.07422 L 17.729794,176.28875 c 2.67527,47.21349 40.780671,85.38671 88.103526,85.38671 47.32283,0 85.42823,-38.17322 88.1035,-85.38671 l 0.002,-0.0176 10.58203,-140.539058 a 1.0001,1.0001 0 0 0 -0.99805,-1.07422 z m 1.07618,2 H 202.44659 L 191.94268,176.13836 a 1.0001,1.0001 0 0 0 -0.002,0.0195 c -2.60967,46.21203 -39.85416,83.51757 -86.10742,83.51757 -46.253263,0 -83.497753,-37.30554 -86.107423,-83.51757 a 1.0001,1.0001 0 0 0 -0.002,-0.0195 z" style="color:#000000;font-style:normal;font-variant:normal;font-weight:normal;font-stretch:normal;font-size:medium;line-height:normal;font-family:sans-serif;font-variant-ligatures:normal;font-variant-position:normal;font-variant-caps:normal;font-variant-numeric:normal;font-variant-alternates:normal;font-variant-east-asian:normal;font-feature-settings:normal;font-variation-settings:normal;text-indent:0;text-align:start;text-decoration:none;text-decoration-line:none;text-decoration-style:solid;text-decoration-color:#000000;letter-spacing:normal;word-spacing:normal;text-transform:none;writing-mode:lr-tb;direction:ltr;text-orientation:mixed;dominant-baseline:auto;baseline-shift:baseline;text-anchor:start;white-space:normal;shape-padding:0;shape-margin:0;inline-size:0;clip-rule:nonzero;display:inline;overflow:visible;visibility:visible;isolation:auto;mix-blend-mode:normal;color-interpolation:sRGB;color-interpolation-filters:linearRGB;solid-color:#000000;solid-opacity:1;vector-effect:none;fill:#000000;fill-opacity:1;fill-rule:nonzero;stroke:none;stroke-width:2;stroke-linecap:round;stroke-linejoin:round;stroke-miterlimit:4;stroke-dasharray:none;stroke-dashoffset:0;stroke-opacity:1;paint-order:stroke fill markers;color-rendering:auto;image-rendering:auto;shape-rendering:auto;text-rendering:auto;enable-background:accumulate;stop-color:#000000"/>
    <path id="path949" d="M 18.726594,176.21422 8.1432635,35.656922 H 203.52306 L 192.93973,176.21422 c -2.63818,46.71687 -40.31554,84.461 -87.10656,84.461 -46.791036,0 -84.468396,-37.74413 -87.106576,-84.461 z" style="color:#000000;font-style:normal;font-variant:normal;font-weight:normal;font-stretch:normal;font-size:medium;line-height:normal;font-family:sans-serif;font-variant-ligatures:normal;font-variant-position:normal;font-variant-caps:normal;font-variant-numeric:normal;font-variant-alternates:normal;font-variant-east-asian:normal;font-feature-settings:normal;font-variation-settings:normal;text-indent:0;text-align:start;text-decoration:none;text-decoration-line:none;text-decoration-style:solid;text-decoration-color:#000000;letter-spacing:normal;word-spacing:normal;text-transform:none;writing-mode:lr-tb;direction:ltr;text-orientation:mixed;dominant-baseline:auto;baseline-shift:baseline;text-anchor:start;white-space:normal;shape-padding:0;shape-margin:0;inline-size:0;clip-rule:nonzero;display:inline;overflow:visible;visibility:visible;isolation:auto;mix-blend-mode:normal;color-interpolation:sRGB;color-interpolation-filters:linearRGB;solid-color:#000000;solid-opacity:1;vector-effect:none;fill:#fedb00;fill-opacity:1;fill-rule:nonzero;stroke:none;stroke-width:2;stroke-linecap:round;stroke-linejoin:round;stroke-miterlimit:4;stroke-dasharray:none;stroke-dashoffset:0;stroke-opacity:1;paint-order:stroke fill markers;color-rendering:auto;image-rendering:auto;shape-rendering:auto;text-rendering:auto;enable-background:accumulate;stop-color:#000000"/>
    <path style="color:#000000;font-style:normal;font-variant:normal;font-weight:normal;font-stretch:normal;font-size:medium;line-height:normal;font-family:sans-serif;font-variant-ligatures:normal;font-variant-position:normal;font-variant-caps:normal;font-variant-numeric:normal;font-variant-alternates:normal;font-variant-east-asian:normal;font-feature-settings:normal;font-variation-settings:normal;text-indent:0;text-align:start;text-decoration:none;text-decoration-line:none;text-decoration-style:solid;text-decoration-color:#000000;letter-spacing:normal;word-spacing:normal;text-transform:none;writing-mode:lr-tb;direction:ltr;text-orientation:mixed;dominant-baseline:auto;baseline-shift:baseline;text-anchor:start;white-space:normal;shape-padding:0;shape-margin:0;inline-size:0;clip-rule:nonzero;display:inline;overflow:visible;visibility:visible;opacity:1;isolation:auto;mix-blend-mode:normal;color-interpolation:sRGB;color-interpolation-filters:linearRGB;solid-color:#000000;solid-opacity:1;vector-effect:none;fill:#000000;fill-opacity:1;fill-rule:nonzero;stroke:none;stroke-width:1.5;stroke-linecap:round;stroke-linejoin:round;stroke-miterlimit:4;stroke-dasharray:none;stroke-dashoffset:0;stroke-opacity:1;paint-order:stroke fill markers;color-rendering:auto;image-rendering:auto;shape-rendering:auto;text-rendering:auto;enable-background:accumulate;stop-color:#000000" d="m 105.67747,42.536792 c -2.06236,-0.024 -4.24343,0.7981 -6.150387,2.14453 -1.343977,0.94894 -2.544929,1.5285 -3.691408,1.70704 -1.14648,0.17853 -2.266752,-0.0136 -3.58203,-0.73243 -1.503611,-0.82173 -2.920061,-0.96903 -4.09375,-0.46484 -1.173691,0.50419 -2.013352,1.55795 -2.669921,2.85352 -0.581001,1.14644 -0.65795,2.210081 -1.05274,3.02148 -0.64195,1.31939 -1.37963,1.68516 -2.34179,1.900391 -0.96217,0.215229 -2.14272,0.147899 -3.347659,0.451169 -1.48318,0.373311 -2.905522,1.03793 -4.013671,2.10157 -1.108149,1.06363 -1.877499,2.53888 -2.023441,4.3789 -0.113069,1.42558 0.178242,2.87424 0.982422,4.083992 0.80418,1.209738 2.12358,2.151118 3.914058,2.572258 3.766201,0.885851 7.433662,-1.028639 11.019541,-1.832028 1.394212,-0.312362 2.472741,-0.149633 3.26562,0.322268 0.79288,0.4719 1.35613,1.27522 1.626949,2.464839 a 0.75007502,0.75007502 0 0 0 0.0117,0.043 c 0.405191,1.389911 1.213511,2.542881 2.39454,3.33984 1.181021,0.79696 2.704092,1.244582 4.552727,1.386721 0.60524,0.0465 1.193,0.451009 1.54297,0.968751 0.58443,0.864608 0.57161,2.20195 0.5664,3.636719 a 0.75007502,0.75007502 0 0 0 0,0.0195 l 0.26172,11.769529 c 0.025,1.12168 -0.22184,2.044462 -0.49413,2.416022 -0.13616,0.185779 -0.23075,0.232828 -0.3418,0.249999 -0.11104,0.0172 -0.30889,2.41e-4 -0.63868,-0.203131 -2.224415,-1.37177 -4.813257,-2.544048 -7.484366,-2.75586 -3.808921,-0.302038 -7.111209,0.5071 -10.345701,1.265631 -3.48556,0.81742 -7.17243,0.96896 -10.892578,-0.45117 -1.77143,-0.67623 -2.445512,-1.92645 -2.416021,-2.966799 0.0295,-1.040353 0.676349,-1.941171 2.226561,-2.103522 a 0.75007502,0.75007502 0 0 0 0.0273,-0.004 c 2.212829,-0.312711 4.419489,0.365009 6.851568,0.560539 l 8.929682,0.716801 c 2.215819,0.178149 4.27577,-0.533091 5.958988,-1.92187 1.666552,-1.375032 2.431942,-3.504232 1.744141,-5.34571 -0.21753,-0.582412 -0.468871,-1.293331 -1.11719,-1.82031 -0.648319,-0.526981 -1.61042,-0.724572 -2.874999,-0.51758 -1.19929,0.196299 -2.044211,0.106928 -2.640621,-0.16015 -0.596421,-0.267081 -1.008539,-0.708782 -1.349611,-1.453131 -0.694248,-1.51511 -1.814689,-2.798909 -3.39258,-3.35547 -1.57789,-0.556559 -3.525239,-0.337331 -5.714838,0.86328 -1.121122,0.614741 -2.140011,1.058629 -2.892582,1.050779 -0.75257,-0.008 -1.37346,-0.305488 -2.105469,-1.687499 -0.627391,-1.184489 -1.264081,-2.446301 -2.29688,-3.52929 -1.03279,-1.083001 -2.472229,-1.949599 -4.541009,-2.33008 -2.171991,-0.399471 -3.928031,-0.0764 -5.302742,0.722659 -1.374698,0.79906 -2.347889,2.026722 -3.148428,3.33398 -1.366001,2.230631 -2.46757,2.97996 -3.402351,3.074221 -0.93477,0.0943 -2.023031,-0.4762 -3.339841,-1.5293 -2.0242,-1.618819 -4.99501,-1.2422 -7.287109,0.0137 -1.146051,0.627941 -2.14956,1.493542 -2.804689,2.55079 -0.655122,1.057241 -0.944211,2.34183 -0.578123,3.632811 0.167913,0.592109 0.244922,1.026769 0.25391,1.302729 0.009,0.275961 -0.0328,0.363641 -0.0742,0.423831 -0.0829,0.12038 -0.519498,0.333939 -1.449218,0.60938 -2.06902,0.61295 -3.62794,1.72625 -4.382809,3.273431 -0.75488,1.547188 -0.630121,3.44501 0.374999,5.382818 1.08648,2.09468 2.799458,3.36713 4.718748,4.07031 1.919291,0.703181 4.046702,0.87553 6.126951,0.888669 5.013852,0.0316 9.12608,-2.003607 13.232421,-3.566408 0.468189,-0.178181 0.823651,-0.128929 1.158201,0.134771 2.703798,2.131229 5.818198,3.968668 10.04688,4.984369 4.034898,0.969171 8.355859,1.502989 13.488278,0.603519 4.411081,-0.77307 8.869701,-1.33672 12.988282,0.501952 2.720935,1.21471 4.685355,3.865459 4.736335,7.105468 l 0.23436,14.97852 c 0.0253,1.60397 -0.26897,2.53713 -0.54687,2.87109 -0.13894,0.16698 -0.24375,0.2216 -0.42382,0.24805 -0.18007,0.0265 -0.45543,-0.002 -0.81446,-0.13867 -2.731517,-1.03722 -5.518035,-1.23027 -8.515626,-0.69336 -7.574521,1.35668 -13.373529,1.73917 -17.494139,1.17383 -0.924311,-0.12682 -1.94106,-0.35019 -2.6582,-0.69336 -0.717151,-0.34318 -1.044321,-0.68613 -1.066411,-1.1875 -0.0347,-0.78802 0.17885,-1.36237 0.566409,-1.85938 0.387551,-0.49701 0.973741,-0.90995 1.679681,-1.2207 1.41066,-0.62096 3.27606,-0.80748 4.554691,-0.69727 3.83694,0.35452 7.761139,0.64314 11.49219,-1.11523 2.409749,-1.13567 4.792869,-2.43044 5.75586,-5.19922 0.849709,-2.4431 0.941948,-5.04801 -0.578131,-7.36133 -1.528579,-2.326249 -4.452609,-2.444888 -6.257811,-0.98242 -1.948399,1.57848 -3.006738,2.659 -4.382809,3.22461 -0.719101,0.29557 -1.003761,0.23738 -1.357419,-0.0527 -0.353671,-0.29011 -0.768442,-1.0087 -1.12305,-2.14453 -0.42781,-1.37032 -1.095661,-2.36797 -1.941412,-2.986328 -0.845738,-0.618352 -1.850858,-0.823621 -2.804679,-0.697262 -1.90764,0.25272 -3.649461,1.700051 -4.57227,3.66211 -0.589319,1.25298 -1.23512,1.45412 -1.878909,1.40234 -0.643782,-0.0518 -1.33201,-0.55715 -1.552731,-0.93945 -0.488921,-0.84683 -0.712161,-2.22688 -1.08008,-3.435548 -0.387741,-1.273792 -1.29005,-2.437871 -2.44726,-3.218752 -1.157211,-0.780878 -2.63188,-1.17843 -4.05469,-0.67383 -2.05827,0.72998 -3.24317,2.851322 -3.089841,5.49024 0.0562,0.9672 -0.324239,1.94104 -0.751959,2.23242 -0.21386,0.14569 -0.426691,0.20572 -0.83984,0.0879 -0.413161,-0.11783 -1.011809,-0.46468 -1.738281,-1.19141 -1.452751,-1.45326 -3.513281,-2.186138 -5.388668,-1.82421 -1.875402,0.36192 -3.466471,1.98727 -3.667972,4.70703 -0.0885,1.19457 -0.308089,1.99694 -0.578131,2.27929 -0.135019,0.14118 -0.27346,0.22054 -0.595698,0.25 -0.322242,0.0295 -0.820481,-0.0266 -1.5,-0.23242 -2.156621,-0.65322 -4.496551,-0.62294 -6.154301,0.56446 -0.828871,0.59369 -1.450179,1.50072 -1.687499,2.64453 -0.23731,1.1438 -0.113991,2.5067 0.41797,4.10937 0.596368,1.79673 1.755069,3.12121 3.23438,3.91016 1.47931,0.78895 3.2551,1.05825 5.136719,0.89453 3.791511,-0.3299 7.868111,-1.27543 11.062491,-1.8418 4.099071,-0.71509 7.035459,1.37996 9.509771,4.01758 a 0.75007502,0.75007502 0 0 0 0.0021,0 c 4.415562,4.6822 10.649402,5.92127 17.51953,5.63086 l 2.52539,-0.10742 c -3.414818,1.48593 -6.49841,3.7179 -9.197258,6.60351 a 0.75007502,0.75007502 0 0 0 -0.008,0.008 c -2.920701,3.21161 -6.31162,7.0407 -9.84961,9.71289 -3.538,2.67218 -7.110801,4.13714 -10.576181,2.96875 a 0.75007502,0.75007502 0 0 0 -0.0449,-0.0137 c -1.40671,-0.3775 -2.42202,-1.18744 -2.87695,-2.74414 -0.17813,-0.60954 -0.0723,-1.03091 0.240239,-1.48632 0.312492,-0.45542 0.87797,-0.90384 1.5664,-1.27344 1.37687,-0.7392 3.228851,-1.15937 4.107421,-1.23242 2.436241,-0.1715 4.904451,-0.41073 7.410161,-1.38282 2.424899,-0.94072 4.739058,-2.27242 6.224609,-4.94531 1.001681,-1.80228 0.5065,-3.7978 -0.95313,-4.90039 -0.839128,-0.63387 -1.881028,-0.77049 -2.85156,-0.7207 -0.970529,0.0498 -1.900669,0.29269 -2.621089,0.56054 -0.86401,0.32124 -1.784152,0.60917 -2.447272,0.62305 -0.33156,0.007 -0.582887,-0.048 -0.765619,-0.14844 -0.182729,-0.10045 -0.329621,-0.2418 -0.462889,-0.56054 -0.498282,-1.19173 -1.006591,-2.41306 -1.72071,-3.41797 -0.714121,-1.00492 -1.714492,-1.82455 -3.041012,-1.92969 -1.562439,-0.12383 -2.823779,0.78732 -3.810548,1.85742 -0.986761,1.0701 -1.79107,2.36313 -2.50976,3.31836 -0.93702,1.24541 -2.01194,1.84646 -2.65625,1.81641 -0.32216,-0.015 -0.577562,-0.12559 -0.865241,-0.47656 -0.287679,-0.35098 -0.57332,-0.96936 -0.74414,-1.91211 -0.570109,-3.14648 -2.753641,-4.95397 -4.941401,-4.76172 -1.093888,0.0961 -2.140228,0.70556 -2.859379,1.74414 -0.71915,1.03858 -1.126609,2.48611 -1.097661,4.31445 0.02421,1.52987 -0.383788,2.44077 -0.716788,2.6836 -0.16651,0.12141 -0.318172,0.16477 -0.628912,0.0957 -0.310739,-0.0691 -0.763219,-0.29493 -1.296868,-0.7461 -2.177301,-1.84074 -4.401201,-1.9736 -5.855471,-0.93554 -1.45427,1.03806 -2.05727,3.02754 -1.56055,4.96875 0.20237,0.79087 0.23249,1.26244 0.25391,1.20703 0.0107,-0.0277 0.0759,-0.051 -0.0664,0.008 -0.1423,0.0588 -0.46246,0.13429 -0.95117,0.18359 -2.20558,0.22252 -3.75224,1.2078 -4.55664,2.57813 -0.8044,1.37033 -0.87101,3.03388 -0.45313,4.5918 0.41788,1.55792 1.31969,3.03906 2.58203,4.11718 1.26235,1.07813 2.91646,1.74601 4.73633,1.56055 0.502,-0.0512 0.82032,-0.001 0.96094,0.0801 0.14062,0.0815 0.27797,0.21545 0.36914,0.80664 0.31398,2.03589 1.4213,3.32687 2.87891,3.7207 1.457599,0.39384 3.105541,0.0307 4.796871,-0.61523 3.19545,-1.22034 5.388229,-3.7049 7.15821,-6.44141 0.009,-0.014 -0.0011,-0.003 0.008,-0.0156 1.808901,1.94891 3.995693,3.20343 6.312501,4.14453 3.94494,1.60245 7.151481,1.52763 10.15234,0.62695 4.866201,-1.46053 8.595892,-4.54772 11.863282,-7.94531 3.45635,-3.59409 6.40992,-6.89561 10.171879,-9.50586 3.136771,-2.17647 6.505089,-4.32213 10.01757,-5.00977 2.384039,-0.46672 4.5129,-0.15795 6.025391,0.83985 1.5125,0.99779 2.49612,2.67518 2.5625,5.29297 l 0.25782,10.2207 c 0.0233,0.92047 -0.18056,1.18734 -0.1875,1.22852 -0.0363,-0.0279 -0.0424,-0.0201 -0.0898,-0.0742 -2.021172,-2.30696 -4.380811,-4.41236 -7.714852,-5.92578 a 0.75007502,0.75007502 0 0 0 -1.02148,0.44726 l -1.09375,3.29102 a 0.75007502,0.75007502 0 0 0 0.271481,0.8457 c 3.08954,2.23239 5.778,4.65291 7.19727,7.87695 2.023201,4.59595 1.960531,10.75937 1.773441,16.26172 l -0.41992,12.32227 a 0.75000001,0.75000001 0 0 0 0.72461,0.77344 0.75000001,0.75000001 0 0 0 0.77539,-0.72266 l 0.41796,-12.32227 c 0.18779,-5.52291 0.32434,-11.8667 -1.89843,-16.91601 -1.510642,-3.43161 -4.26791,-5.91599 -7.259771,-8.125 l 0.63867,-1.92188 c 2.67557,1.36465 4.715589,3.08909 6.480471,5.10352 0.24327,0.27767 0.52942,0.50649 0.90039,0.62109 0.37097,0.1146 0.85659,0.0574 1.19922,-0.19922 0.68527,-0.51327 0.83784,-1.37111 0.80664,-2.60156 l -0.25976,-10.2207 c -0.0759,-2.99402 -1.30598,-5.23565 -3.23438,-6.50781 -1.928401,-1.27217 -4.467871,-1.58341 -7.138671,-1.06055 -3.905872,0.76464 -7.419271,3.05279 -10.585939,5.25 -3.945422,2.73755 -6.963471,6.1294 -10.396482,9.69922 -3.18633,3.31329 -6.703769,6.19293 -11.214849,7.54687 -2.75408,0.82661 -5.479942,0.91521 -9.15625,-0.57812 -2.26976,-0.92199 -4.300831,-2.07884 -5.937502,-3.90625 -0.174677,-0.19504 -0.357409,-0.36285 -0.626948,-0.4668 -0.269542,-0.10395 -0.64157,-0.0749 -0.878912,0.0508 -0.474668,0.25139 -0.56628,0.55903 -0.701169,0.76758 -1.688119,2.60995 -3.65854,4.79373 -6.43359,5.85351 -1.547109,0.59084 -2.948041,0.81972 -3.8711,0.57032 -0.92306,-0.24941 -1.53043,-0.83762 -1.78711,-2.50196 -0.13106,-0.84985 -0.5028,-1.53094 -1.09961,-1.87695 -0.59681,-0.34601 -1.24341,-0.3368 -1.86523,-0.27344 -1.37337,0.13996 -2.59984,-0.34678 -3.60938,-1.20898 -1.00953,-0.86221 -1.76941,-2.10508 -2.10742,-3.36523 -0.33801,-1.26016 -0.25345,-2.50586 0.29688,-3.44336 0.55032,-0.93751 1.55966,-1.65862 3.41406,-1.84571 0.56009,-0.0565 0.99199,-0.1336 1.37305,-0.29101 0.38105,-0.15741 0.7413,-0.46018 0.89257,-0.85157 0.30256,-0.78277 -0.008,-1.37194 -0.19921,-2.12109 -0.36201,-1.41475 0.12232,-2.76385 0.97851,-3.375 0.85619,-0.61115 2.16581,-0.70421 4.01758,0.86133 0.657149,0.55558 1.290141,0.91859 1.9375,1.0625 0.647361,0.1439 1.326679,0.0251 1.837891,-0.34766 1.022408,-0.74552 1.361959,-2.15053 1.333979,-3.91797 -0.02519,-1.59169 0.334809,-2.71941 0.83204,-3.4375 0.497229,-0.71808 1.113901,-1.0471 1.75586,-1.10351 1.283909,-0.11283 2.861159,0.92369 3.33398,3.5332 0.201319,1.11111 0.54745,1.97166 1.060551,2.59766 0.51309,0.626 1.227039,0.98939 1.95703,1.02343 1.459979,0.0681 2.814669,-0.93791 3.923829,-2.4121 0.78036,-1.0372 1.5655,-2.2829 2.414061,-3.20313 0.848559,-0.92023 1.66883,-1.4519 2.58985,-1.37891 0.799748,0.0634 1.36529,0.50028 1.935538,1.30274 0.570252,0.80246 1.064311,1.94008 1.560553,3.12695 0.242228,0.57934 0.642728,1.03284 1.123047,1.29688 0.480312,0.26404 1.007941,0.34274 1.519532,0.33203 1.023159,-0.0214 2.041408,-0.38096 2.939449,-0.71485 0.59594,-0.22156 1.412499,-0.42959 2.17578,-0.46875 0.76328,-0.0391 1.442482,0.0976 1.869141,0.41993 0.95962,0.72488 1.251961,1.70247 0.54492,2.97461 -1.27163,2.288 -3.16693,3.38771 -5.455071,4.27539 -2.27602,0.88297 -4.571381,1.1156 -6.982431,1.28515 a 0.75007502,0.75007502 0 0 0 -0.01,0.002 c -1.142,0.095 -3.049759,0.52489 -4.691401,1.40625 -0.82082,0.44067 -1.57857,0.99529 -2.093749,1.74609 -0.51518,0.7508 -0.741791,1.73941 -0.445309,2.75391 0.593129,2.02962 2.125988,3.27626 3.912108,3.76171 4.110601,1.37199 8.22166,-0.39323 11.931631,-3.19531 3.7156,-2.80632 7.14126,-6.69521 10.04883,-9.89258 4.055211,-4.33583 8.782259,-7.24909 14.386719,-7.89648 a 0.75007502,0.75007502 0 0 0 -0.117189,-1.49414 l -8.757809,0.36914 c -6.655181,0.28142 -12.339111,-0.89095 -16.36327,-5.15811 -2.61857,-2.79142 -6.14204,-5.29009 -10.861331,-4.4668 a 0.75007502,0.75007502 0 0 0 -0.0021,0 c -3.259299,0.5778 -7.2971,1.50781 -10.933589,1.82422 -1.658371,0.14429 -3.13689,-0.10297 -4.298831,-0.72266 -1.16195,-0.61969 -2.031069,-1.59481 -2.517579,-3.06055 -0.473271,-1.42585 -0.54034,-2.52571 -0.37305,-3.33203 0.167299,-0.80631 0.545479,-1.3372 1.091798,-1.72851 1.092642,-0.78263 3.005132,-0.90711 4.845701,-0.34961 0.7937,0.24041 1.464421,0.3466 2.07227,0.29101 0.607851,-0.0556 1.161171,-0.30772 1.54492,-0.70898 0.767509,-0.80251 0.89371,-1.92666 0.98828,-3.20312 0.16564,-2.23569 1.178351,-3.09894 2.457029,-3.34571 1.278692,-0.24677 2.924641,0.29338 4.042971,1.41211 0.84287,0.84317 1.620502,1.35569 2.386719,1.57422 0.76622,0.21853 1.534882,0.0924 2.097662,-0.29102 1.12555,-0.76677 1.480449,-2.21443 1.402339,-3.55859 -0.126889,-2.183839 0.69546,-3.493629 2.095701,-3.990231 0.8807,-0.312349 1.844188,-0.0836 2.71485,0.503902 0.870648,0.58751 1.584381,1.53439 1.851559,2.412108 0.31282,1.027641 0.50169,2.512841 1.21484,3.748051 0.516091,0.89389 1.5226,1.58628 2.732421,1.68359 1.209828,0.0973 2.57583,-0.60017 3.35547,-2.25781 0.726368,-1.54439 2.162259,-2.648869 3.412109,-2.81445 0.62493,-0.0828 1.192889,0.0345 1.722659,0.42187 0.52977,0.38733 1.036942,1.07725 1.394532,2.22266 0.392628,1.25763 0.84179,2.23256 1.60352,2.85742 0.76173,0.62486 1.844681,0.7044 2.8789,0.2793 1.728769,-0.71058 2.86943,-1.91704 4.755859,-3.44532 1.195191,-0.96827 2.9817,-1.0012 4.06055,0.64063 1.22942,1.87098 1.173562,3.8668 0.41602,6.04492 -0.759799,2.18456 -2.622029,3.2225 -4.980469,4.33399 -3.30413,1.55716 -6.89932,1.33087 -10.7129,0.97851 a 0.75007502,0.75007502 0 0 0 -0.004,0 c -1.529091,-0.13252 -3.55478,0.0532 -5.292971,0.81836 -0.869098,0.38257 -1.673,0.91745 -2.259769,1.66992 -0.586759,0.75248 -0.932011,1.73091 -0.882809,2.84766 0.0525,1.19157 0.94892,2.01284 1.91797,2.47656 0.969049,0.46372 2.101048,0.68864 3.103509,0.82617 4.395089,0.603 10.305,0.18767 17.960941,-1.18359 2.78193,-0.49828 5.244258,-0.32122 7.720701,0.61914 0.52183,0.19815 1.04376,0.29496 1.5625,0.21875 0.51875,-0.0762 1.01338,-0.35332 1.36133,-0.77148 0.69591,-0.83633 0.92042,-2.0852 0.89258,-3.85352 l -0.23438,-14.97852 c -0.0603,-3.835381 -2.40319,-7.01481 -5.625003,-8.453119 -4.587629,-2.048071 -9.404768,-1.390071 -13.85937,-0.609381 -4.89408,0.857711 -8.957551,0.359871 -12.878908,-0.58203 -3.993822,-0.959289 -6.871092,-2.660999 -9.466792,-4.70703 -0.74635,-0.588299 -1.74679,-0.690161 -2.6211,-0.357421 -4.193821,1.596091 -8.09243,3.497742 -12.691399,3.468751 -1.999972,-0.01259 -3.96549,-0.191021 -5.619141,-0.796869 -1.653648,-0.605861 -2.99285,-1.600081 -3.90234,-3.35352 -0.85122,-1.641102 -0.880369,-2.965381 -0.35938,-4.033202 0.520991,-1.067829 1.666822,-1.962629 3.46094,-2.49414 0.93763,-0.277778 1.7423,-0.446958 2.257811,-1.195319 0.25776,-0.374171 0.355529,-0.842171 0.33985,-1.324221 -0.01569,-0.482039 -0.12546,-1.009409 -0.31055,-1.662099 -0.242321,-0.854541 -0.0726,-1.654471 0.41016,-2.4336 0.482791,-0.77913 1.29431,-1.50176 2.249998,-2.025391 1.911361,-1.047269 4.289423,-1.22944 5.628902,-0.1582 1.41301,1.13003 2.830309,2.010691 4.427731,1.84961 1.59743,-0.161089 3.054069,-1.37101 4.531249,-3.783209 0.734449,-1.199319 1.562049,-2.2036 2.62305,-2.82031 1.060989,-0.616709 2.377929,-0.89426 4.277339,-0.54492 1.803032,0.33161 2.88718,1.010439 3.726561,1.89062 0.83939,0.88019 1.42291,1.998851 2.05664,3.19532 0.88592,1.672561 2.13342,2.47296 3.41602,2.486319 1.282599,0.01339 2.465019,-0.597069 3.630861,-1.236319 1.93602,-1.061569 3.386129,-1.153811 4.492188,-0.76368 1.106051,0.390139 1.954321,1.31159 2.52929,2.566411 0.449162,0.980228 1.144471,1.768668 2.101572,2.197269 0.957088,0.428591 2.113598,0.497451 3.494138,0.271481 1.020522,-0.167042 1.428001,-0.008 1.685541,0.201168 0.257551,0.209352 0.447271,0.616892 0.65821,1.18164 0.420941,1.127001 -0.0377,2.626421 -1.292969,3.662111 -1.421482,1.172829 -3.050971,1.733219 -4.882811,1.585939 l -8.92969,-0.718748 c -2.200939,-0.176951 -4.54515,-0.9153 -7.16406,-0.550781 -2.150739,0.22906 -3.513309,1.81532 -3.562501,3.55078 -0.0493,1.73777 1.131351,3.55143 3.380859,4.41016 4.063281,1.551119 8.093102,1.373901 11.769532,0.51172 3.242239,-0.760349 6.35494,-1.51039 9.88476,-1.230469 2.30687,0.18293 4.711501,1.23829 6.814462,2.53515 0.53632,0.33075 1.10541,0.495308 1.65625,0.41016 0.55083,-0.0851 1.01348,-0.424371 1.32226,-0.845701 0.61755,-0.842661 0.81459,-2.013979 0.78516,-3.335941 l -0.26172,-11.75 v -0.0195 c 0.006,-1.385808 0.12451,-3.05934 -0.82422,-4.462888 -0.57391,-0.84904 -1.51846,-1.53438 -2.67188,-1.62305 -1.669603,-0.12837 -2.926003,-0.52928 -3.826171,-1.136721 -0.900171,-0.607431 -1.473801,-1.414071 -1.79492,-2.515619 l 0.01169,0.043 c -0.341561,-1.50033 -1.140811,-2.716752 -2.322261,-3.419922 -1.181449,-0.703159 -2.691019,-0.87031 -4.36133,-0.496088 -3.83744,0.85975 -7.296209,2.551718 -10.347659,1.83398 -1.47534,-0.347012 -2.417141,-1.05283 -3.00781,-1.941401 -0.590679,-0.888569 -0.82709,-1.990429 -0.73633,-3.13477 0.118981,-1.50016 0.698191,-2.58268 1.56641,-3.41601 0.868209,-0.83334 2.049579,-1.40327 3.341788,-1.72852 0.89163,-0.22441 2.070151,-0.16633 3.308602,-0.44336 1.238451,-0.27703 2.542489,-1.0241 3.36133,-2.70703 0.553609,-1.13784 0.630359,-2.18582 1.042961,-3 0.568939,-1.12264 1.223309,-1.85337 1.923828,-2.1543 0.700532,-0.30093 1.537739,-0.27529 2.781249,0.4043 1.543233,0.84338 3.060301,1.1278 4.533212,0.89844 1.472899,-0.22936 2.87559,-0.94065 4.326171,-1.96485 1.69633,-1.19771 3.62862,-1.888241 5.26953,-1.869141 1.64091,0.0191 2.9635,0.651511 3.82031,2.263671 0.79251,1.49116 2.11167,2.32581 3.57227,2.4629 1.4606,0.13708 3.03036,-0.33618 4.61914,-1.18555 1.95463,-1.04495 4.42201,-1.86065 6.5,-1.82422 2.07799,0.0364 3.69409,0.76582 4.54297,3.02539 0.32542,0.86624 0.68863,1.71191 1.24804,2.4082 0.55942,0.6963 1.37844,1.23372 2.39258,1.29688 2.32202,0.14463 4.08059,0.51894 5.63477,1.4414 1.1949,0.70923 2.05353,2.07235 2.4082,3.5586 0.35467,1.48625 0.18424,3.05317 -0.4707,4.089839 -0.71597,1.133271 -2.09357,1.64593 -3.81446,1.812501 -1.72088,0.166569 -3.68756,-0.0381 -5.29297,-0.19726 -3.02918,-0.300331 -5.66323,0.728549 -7.41992,2.775389 -2.31711,2.69987 -4.20106,3.00228 -6.69922,2.52929 -2.15163,-0.40736 -4.29867,-0.1847 -6.11328,1.042972 -2.288,1.547939 -3.86604,4.105629 -3.84765,6.36719 l 0.0879,10.796878 a 0.75007502,0.75007502 0 0 0 0,0.0312 l 0.20508,4.001952 c 0.033,0.6447 0.20286,1.193898 0.53906,1.607418 0.33619,0.41352 0.82376,0.63994 1.28515,0.70508 0.92279,0.130281 1.79475,-0.21436 2.51563,-0.617188 5.5748,-3.115191 13.4031,-2.173592 20.83203,0.138668 2.33754,0.727562 4.73172,1.116672 6.94727,0.609381 2.21554,-0.507299 4.202,-1.972839 5.52539,-4.67383 a 0.75007502,0.75007502 0 0 0 0.0254,-0.0586 c 0.2475,-0.639379 -0.0152,-1.368079 -0.44922,-1.82032 -0.43406,-0.45224 -1.02266,-0.785749 -1.73633,-1.09179 -3.17682,-1.36229 -6.72249,-1.539291 -10.22656,-1.63086 a 0.75007502,0.75007502 0 0 0 -0.002,0 l -10.02539,-0.236329 c -2.15773,-0.0509 -4.7008,-2.05019 -4.41797,-5.087892 0.18359,-1.971919 0.88754,-3.10872 1.80468,-3.615238 0.91715,-0.506521 2.21456,-0.474382 3.84766,0.361328 1.26579,0.64774 2.48763,1.335292 3.85352,1.351561 1.36588,0.0163 2.70975,-0.80558 3.8164,-2.65234 1.06296,-1.773851 1.98454,-2.236639 2.99414,-2.2207 1.0096,0.0159 2.27133,0.655841 3.6543,1.60547 1.34399,0.922851 2.83327,1.51856 4.33594,1.238279 1.50266,-0.280278 2.83617,-1.46036 3.81445,-3.58594 0.50319,-1.093319 1.15898,-2.131748 1.90039,-2.85156 0.74141,-0.71981 1.52216,-1.112478 2.39649,-1.08594 1.3966,0.0424 2.29229,0.672002 2.95507,1.66211 0.66278,0.99011 1.02264,2.363062 1.08399,3.697271 0.0386,0.84042 0.19014,1.53451 0.49804,2.103509 0.30791,0.569 0.79912,0.99404 1.36133,1.203132 1.12442,0.418158 2.38463,0.122619 3.78125,-0.38282 1.07868,-0.390372 2.0745,-0.82659 2.96485,-0.93164 0.89035,-0.10504 1.65766,0.0319 2.60742,0.908208 0.62686,0.578411 0.83859,1.172851 0.83984,1.996091 0.001,0.823241 -0.26818,1.85841 -0.69531,3.03711 -0.39956,1.10264 -0.41372,2.23751 0.28516,3.025391 0.69887,0.787879 1.85407,1.02838 3.33398,0.910159 1.81226,-0.14477 3.48384,-0.0232 4.52539,0.890619 0.63155,0.554101 1.04237,1.185511 1.19922,1.88477 0.15685,0.699252 0.0759,1.494502 -0.40625,2.451172 -0.69526,1.379608 -1.81174,2.168189 -3.26758,2.671868 -1.45584,0.503692 -3.23205,0.676542 -5.04297,0.73828 -4.23649,0.144462 -8.91931,-1.609458 -13.4414,-3.207028 a 0.75007502,0.75007502 0 0 0 -0.0137,-0.004 c -0.67779,-0.225721 -1.31961,-0.37955 -1.96679,-0.34766 -0.64719,0.0319 -1.3005,0.29505 -1.79492,0.79883 -1.70051,1.73269 -3.4598,3.319799 -5.67188,4.34766 -2.94454,1.368189 -6.22141,1.30266 -9.73047,0.499999 -5.72397,-1.30365 -14.04495,-4.30907 -20.68164,-1.423829 -3.52142,1.530908 -5.06854,5.218261 -5.00586,9.785149 l 0.23438,17.17774 c 0.0115,0.84054 0.11844,1.47493 0.39843,1.99219 0.28,0.51725 0.80808,0.86518 1.3125,0.94335 1.00886,0.15636 1.87112,-0.30602 2.70704,-0.58398 3.80912,-1.26659 6.92029,-1.50759 9.77148,0.24219 3.25779,1.99931 7.0597,1.37427 10.4375,0.42187 3.29116,-0.92797 6.12583,-2.75659 7.40234,-5.88476 0.24953,-0.61149 0.32601,-1.1938 0.1836,-1.7168 -0.14241,-0.523 -0.50501,-0.92555 -0.90235,-1.17187 -0.79466,-0.49264 -1.72828,-0.54097 -2.50195,-0.5 -3.44936,0.18271 -6.73867,1.2394 -9.95703,1.43945 -4.33559,0.26949 -6.87198,-1.00623 -9.19922,-3.50586 -1.09189,-1.17278 -2.06357,-3.08377 -2.61719,-4.9375 -0.55361,-1.85373 -0.64131,-3.68263 -0.32422,-4.49024 0.68491,-1.74436 1.81935,-2.59536 2.89454,-2.73046 1.07518,-0.13511 2.21782,0.38764 3.08984,1.91211 0.85857,1.50094 1.70372,2.96866 3.06445,3.63085 0.68037,0.3311 1.51946,0.3853 2.31836,0.0606 0.79891,-0.32475 1.56635,-0.96672 2.39063,-1.96094 1.26986,-1.53164 2.40862,-2.04896 3.54297,-1.98632 1.13434,0.0626 2.40763,0.77442 3.75781,2.11718 0.86305,0.85832 1.66001,1.40548 2.45703,1.66602 0.79702,0.26054 1.59783,0.19348 2.25977,-0.12109 1.32388,-0.62915 2.12898,-2.00451 2.88867,-3.42579 0.77176,-1.44388 1.99645,-2.806009 3.34375,-3.52734 1.34729,-0.721329 2.74301,-0.864518 4.24804,0.0449 0.52011,0.31428 0.72343,0.708822 0.83594,1.417971 0.11251,0.709159 0.0588,1.684659 -0.0176,2.812499 -0.1241,1.83242 0.26073,3.35404 1.43555,4.10547 1.17482,0.75143 2.77235,0.50021 4.61523,-0.48633 1.39792,-0.74834 2.37479,-1.14882 3.21485,-1.19336 0.84006,-0.0445 1.65026,0.22017 2.87109,1.04883 0.63828,0.43325 1.30661,1.09225 1.65235,1.78125 0.34573,0.68901 0.42471,1.33761 -0.0234,2.12109 -0.4067,0.71101 -0.65232,1.32728 -0.74024,1.89844 -0.0879,0.57116 5.3e-4,1.14494 0.34375,1.57031 0.3432,0.42538 0.8685,0.60989 1.37305,0.63672 0.50455,0.0268 1.0273,-0.0791 1.57812,-0.27734 0.45862,-0.16509 0.98556,-0.14977 1.41407,0.0488 0.4285,0.1986 0.78239,0.55437 0.96093,1.2207 0.5987,2.23435 -0.77293,5.52588 -2.74609,6.79492 -2.06461,1.32786 -5.48785,0.83556 -7.88672,-0.42578 -2.34999,-1.23564 -4.45515,-2.69595 -7.72461,-3.96289 -1.1955,-0.46326 -2.46502,-0.85971 -3.82031,-0.81836 -1.35529,0.0413 -2.77182,0.55803 -4.10547,1.77539 a 0.75007502,0.75007502 0 0 0 -0.0469,0.0488 c -1.60015,1.75394 -3.12974,3.44247 -5.3125,4.91016 -3.68058,2.47481 -8.55446,3.38 -14.47656,2.9375 a 0.75007502,0.75007502 0 0 0 -0.49219,1.35937 c 2.70293,1.9229 5.29865,3.62707 7.71875,5.95313 l 7.06445,6.78907 c 3.92919,3.77645 8.53226,7.86774 14.08594,8.92772 4.25227,0.81159 8.37914,-0.27333 11.5332,-3.63672 a 0.75007502,0.75007502 0 0 0 0.002,-0.002 c 0.34703,-0.3711 0.62772,-0.84534 0.55274,-1.39258 -0.0746,-0.5446 -0.44635,-0.90521 -0.84375,-1.18554 -4.00992,-2.97107 -8.91385,-3.18463 -13.36719,-4.09766 -1.69299,-0.3471 -3.3521,-0.70928 -4.75,-1.375 -1.3979,-0.66572 -2.53479,-1.60229 -3.31641,-3.19727 -1.04102,-2.12432 -0.35203,-4.266 0.86719,-5.23633 1.70337,-1.35564 4.77907,-0.85693 6.61719,1.2207 1.24969,1.41252 2.73782,2.29597 4.40039,2.14648 1.66257,-0.14947 3.30372,-1.26197 5.03906,-3.34178 1.31287,-1.57349 2.41947,-1.69288 3.34375,-1.3125 0.92429,0.38036 1.71119,1.45755 1.88477,2.61914 a 0.75007502,0.75007502 0 0 0 0.004,0.0156 c 0.13236,0.76229 0.42616,1.38394 0.8828,1.81249 0.45665,0.42857 1.06404,0.62489 1.64258,0.60352 1.15709,-0.0427 2.22332,-0.80004 2.9375,-1.92383 2.1176,-3.33212 6.12471,-4.44591 8.38281,-2.85936 0.75025,0.5271 1.34517,1.46691 1.4629,2.49217 0.11771,1.02527 -0.18736,2.13775 -1.32423,3.1836 -0.83313,0.76645 -1.56847,1.71819 -1.82812,2.75001 -0.12982,0.5159 -0.12731,1.10885 0.1914,1.61523 0.31872,0.50637 0.89545,0.81198 1.57619,0.92578 1.52733,0.25532 2.95217,-0.59862 4.05858,-1.17578 1.94177,-1.01292 3.63722,-0.70643 4.50781,0.40819 0.53858,0.68954 0.72721,1.2186 0.60157,1.8633 -0.12564,0.64468 -0.65378,1.51837 -1.88672,2.6367 -0.53834,0.4883 -0.92928,0.96118 -1.16993,1.45899 -0.24063,0.49781 -0.32614,1.06606 -0.12695,1.57422 0.1992,0.50817 0.64083,0.8596 1.13867,1.06054 0.49785,0.20096 1.07906,0.28517 1.75392,0.28517 0.81433,0 1.08513,0.22987 1.22655,0.51367 0.14143,0.28381 0.1465,0.81227 -0.15039,1.46093 -0.4823,1.05379 -1.39452,1.73876 -2.48632,2.36523 -2.42343,1.39058 -5.31798,1.55217 -8.81446,0.76955 -3.14694,-0.70441 -5.86896,-2.2147 -8.25391,-4.62892 a 0.75007502,0.75007502 0 0 0 -0.002,-0.004 c -0.23638,-0.23636 -0.54762,-0.48312 -0.98242,-0.52734 -0.4348,-0.0442 -0.82038,0.14264 -1.13867,0.3789 l 0.0137,-0.01 c -2.91509,2.06802 -6.22915,3.60717 -10.41406,4.25586 -3.7077,0.57471 -7.19733,-0.0346 -10.6543,-2.72852 l -0.004,-0.002 c -3.72734,-2.95076 -7.24676,-6.16906 -10.89648,-9.25195 l -8.11914,-6.85742 c -2.5149,-2.12431 -5.32789,-4.15128 -8.44922,-5.10743 -2.06675,-0.63309 -4.47243,-0.43336 -6.4043,0.91797 -1.93187,1.35133 -3.30246,3.84543 -3.37305,7.51953 -0.11859,6.17275 -0.093,12.21682 0.39453,18.11914 a 0.75007502,0.75007502 0 0 0 1.125,0.58594 c 2.16413,-1.26227 4.21729,-2.61573 6.22461,-4.00586 0.26889,0.5107 0.63022,1.08364 1.08007,1.72071 -2.06092,1.59138 -4.23856,3.19017 -6.03905,4.82617 -2.43956,2.21666 -3.43109,5.30084 -3.25195,8.5332 0.2471,4.45905 0.26587,8.96726 0.83788,13.51367 a 0.75000001,0.75000001 0 0 0 0.8379,0.65039 0.75000001,0.75000001 0 0 0 0.65039,-0.83593 c -0.55711,-4.42784 -0.57821,-8.90035 -0.82813,-13.41016 -0.15979,-2.8833 0.67941,-5.44779 2.76172,-7.33984 1.86654,-1.69602 4.23686,-3.42671 6.47852,-5.17383 a 0.75007502,0.75007502 0 0 0 0.11328,-1.07422 c -0.91676,-1.09233 -1.21828,-1.86945 -1.75587,-2.82031 a 0.75007502,0.75007502 0 0 0 -1.08399,-0.24414 c -1.83324,1.28962 -3.75861,2.499 -5.71678,3.67968 -0.38758,-5.4278 -0.43975,-10.98688 -0.33008,-16.69531 0.0639,-3.32403 1.22921,-5.26747 2.73437,-6.32031 1.50515,-1.05285 3.43772,-1.22241 5.10743,-0.71094 2.79048,0.8548 5.46957,2.74857 7.91992,4.81836 l 8.11719,6.85742 c 3.62068,3.05836 7.15532,6.28969 10.93944,9.28516 a 0.75007502,0.75007502 0 0 0 0.004,0.002 c 3.76589,2.93624 7.78854,3.65438 11.80859,3.03125 4.42301,-0.68559 7.98648,-2.33703 11.05469,-4.51367 a 0.75007502,0.75007502 0 0 0 0.0117,-0.01 c 0.16934,-0.1257 0.17175,-0.0839 0.0937,-0.0918 -0.0744,-0.008 -0.0484,-0.0213 0.0684,0.0918 7.9e-4,7.9e-4 0.001,10e-4 0.002,0.002 0.003,0.003 -0.001,-0.001 0.002,0.002 2.56733,2.59743 5.57556,4.27278 8.99024,5.03711 3.7154,0.83164 7.05652,0.69039 9.88671,-0.9336 1.1862,-0.68064 2.42796,-1.56073 3.10547,-3.04101 0.42305,-0.92432 0.54618,-1.91457 0.12696,-2.75586 -0.41904,-0.84108 -1.38708,-1.34354 -2.56817,-1.34354 -0.54178,0 -0.94992,-0.0783 -1.19141,-0.17578 -0.24149,-0.0975 -0.28982,-0.18082 -0.30469,-0.21875 -0.0149,-0.0379 -0.0385,-0.1278 0.0801,-0.37305 0.11856,-0.24525 0.38603,-0.59899 0.82813,-1 1.357,-1.23087 2.12888,-2.32827 2.34961,-3.46094 0.22073,-1.13266 -0.19946,-2.18931 -0.89063,-3.07421 -1.37852,-1.76495 -3.98484,-2.06637 -6.38476,-0.81446 -1.1114,0.57976 -2.38396,1.14764 -3.11524,1.02539 -0.41382,-0.0692 -0.51616,-0.18293 -0.55468,-0.24414 -0.0385,-0.0612 -0.0725,-0.18436 -0.006,-0.44922 0.13329,-0.52971 0.71567,-1.39454 1.38867,-2.01367 1.44634,-1.33056 1.96805,-2.98323 1.79883,-4.45702 -0.16923,-1.47379 -0.97493,-2.76607 -2.0918,-3.55078 -3.15976,-2.22004 -8.01567,-0.64135 -10.50977,3.28319 -0.50042,0.78745 -1.25512,1.21298 -1.72851,1.23048 -0.2367,0.009 -0.39556,-0.0462 -0.5586,-0.19922 -0.16303,-0.15302 -0.34152,-0.44434 -0.43359,-0.97461 l 0.004,0.0176 c -0.24722,-1.65443 -1.28162,-3.15882 -2.79883,-3.7832 -1.5172,-0.62438 -3.47298,-0.17144 -5.0664,1.73828 -1.6032,1.92144 -2.94947,2.7122 -4.02149,2.80859 -1.07201,0.0964 -2.06525,-0.43099 -3.14062,-1.64648 -2.3021,-2.60206 -6.19265,-3.37662 -8.67578,-1.40039 -1.82802,1.45485 -2.60947,4.35597 -1.2793,7.07031 0.93823,1.91455 2.39941,3.12001 4.01758,3.89063 1.61817,0.77061 3.3928,1.1415 5.09375,1.49023 4.61185,0.94553 9.22498,1.1965 12.78515,3.83984 a 0.75007502,0.75007502 0 0 0 0.0156,0.0117 c 0.24387,0.17143 0.23517,0.24507 0.2246,0.16797 -0.0105,-0.0766 0.0326,-0.047 -0.1621,0.16211 -2.82653,3.01411 -6.30959,3.92596 -10.1582,3.19141 -4.99608,-0.95356 -9.43319,-4.79348 -13.32619,-8.53516 l -7.06444,-6.79102 c -1.91512,-1.84069 -3.91186,-3.27672 -5.91992,-4.6914 5.06458,0.0568 9.48082,-0.88846 12.9668,-3.23242 2.3359,-1.57066 3.9556,-3.36363 5.53906,-5.09961 1.1091,-1.01029 2.10706,-1.34956 3.13281,-1.38086 1.02762,-0.0314 2.10917,0.28273 3.23438,0.71875 3.10855,1.20458 5.1177,2.604 7.56835,3.89258 2.75311,1.4476 6.61078,2.15101 9.39649,0.35937 2.63195,-1.69274 4.19929,-5.3909 3.38086,-8.44531 -0.28212,-1.05287 -0.96429,-1.81653 -1.77735,-2.19336 -0.81306,-0.37683 -1.73458,-0.39412 -2.55273,-0.0996 -0.41609,0.14978 -0.76869,0.20319 -0.99024,0.19141 -0.22154,-0.0118 -0.27122,-0.0624 -0.2871,-0.082 -0.0159,-0.0197 -0.0736,-0.0983 -0.0273,-0.39843 0.0462,-0.30015 0.21373,-0.77454 0.56054,-1.38086 0.69633,-1.21736 0.56938,-2.52698 0.0606,-3.54101 -0.50883,-1.01404 -1.34407,-1.80231 -2.15039,-2.34962 -1.36376,-0.92567 -2.55876,-1.37001 -3.79101,-1.30467 -1.23226,0.0653 -2.3941,0.59309 -3.84376,1.36913 -1.61721,0.86573 -2.60924,0.85981 -3.10155,0.54492 -0.49233,-0.31489 -0.85229,-1.17235 -0.7461,-2.74023 0.0765,-1.12971 0.1558,-2.17867 0.002,-3.148435 -0.15386,-0.96978 -0.61696,-1.908421 -1.54101,-2.4668 -1.94742,-1.176761 -4.03831,-0.991 -5.73243,-0.084 -1.69411,0.907021 -3.0641,2.472028 -3.95703,4.142575 -0.72394,1.35441 -1.50635,2.44344 -2.20898,2.77736 -0.35132,0.16694 -0.67242,0.20701 -1.15039,0.0508 -0.47798,-0.15626 -1.10948,-0.54919 -1.86719,-1.30275 -1.4929,-1.48471 -3.05678,-2.45826 -4.73242,-2.55078 -1.67565,-0.0925 -3.32074,0.76614 -4.7793,2.52539 -0.72987,0.88035 -1.34551,1.34229 -1.80078,1.52735 -0.45527,0.18506 -0.74169,0.15369 -1.09766,-0.0195 -0.71192,-0.34646 -1.5844,-1.56474 -2.41992,-3.0254 -1.0962,-1.916364 -2.85913,-2.872246 -4.57812,-2.656235 -1.71899,0.215998 -3.26719,1.544855 -4.10157,3.669915 -0.57246,1.458 -0.32662,3.43336 0.28125,5.46875 0.60787,2.03538 1.6254,4.09902 2.95704,5.5293 2.54161,2.72988 5.7032,4.27365 10.38867,3.98242 3.47166,-0.2158 6.75892,-1.27077 9.94336,-1.43946 0.5917,-0.0313 1.31754,0.0819 1.63281,0.27735 0.15764,0.0977 0.2132,0.17019 0.24609,0.29101 0.0329,0.12083 0.0404,0.35062 -0.125,0.75586 -1.06193,2.60234 -3.40253,4.15648 -6.42187,5.00781 -3.25682,0.9183 -6.55444,1.39482 -9.24414,-0.25586 -3.32727,-2.04193 -7.03575,-1.71722 -11.03125,-0.38866 -0.91393,0.30389 -1.74566,0.56542 -2.00391,0.52538 -0.12913,-0.02 -0.12889,-5.3e-4 -0.22265,-0.17382 -0.0938,-0.17322 -0.2071,-0.59149 -0.2168,-1.29883 l -0.23633,-17.17969 c -0.0581,-4.234405 1.23005,-7.138596 4.10547,-8.388665 5.84441,-2.540809 13.8688,0.171821 19.75195,1.511718 l -0.002,-0.0021 c 3.69036,0.844139 7.34788,0.955799 10.69531,-0.599612 2.47093,-1.14812 4.37057,-2.884491 6.11133,-4.658199 0.24783,-0.252521 0.4543,-0.334582 0.79883,-0.35156 0.34453,-0.01699 0.82647,0.0745 1.41797,0.271479 4.49462,1.588129 9.30662,3.448431 13.98047,3.289061 1.86875,-0.0637 3.77666,-0.230161 5.48242,-0.820311 1.70576,-0.590151 3.22725,-1.650108 4.11719,-3.416009 0.60809,-1.206651 0.76918,-2.39436 0.53125,-3.45508 -0.23794,-1.060731 -0.85653,-1.966521 -1.67383,-2.6836 -1.56047,-1.369092 -3.69881,-1.41051 -5.63477,-1.25585 -1.24659,0.0996 -1.8701,-0.16024 -2.09179,-0.41016 -0.22169,-0.24992 -0.29869,-0.68989 0.002,-1.519531 0.45145,-1.24582 0.78688,-2.417371 0.78515,-3.55078 -0.002,-1.133409 -0.40165,-2.246259 -1.32226,-3.095709 -1.22699,-1.132142 -2.58759,-1.438061 -3.80078,-1.294922 -1.2132,0.14314 -2.29634,0.646261 -3.30078,1.009772 -1.26994,0.459589 -2.25689,0.569378 -2.74805,0.38672 -0.24558,-0.0913 -0.40479,-0.218321 -0.5625,-0.50977 -0.15767,-0.291502 -0.28648,-0.76659 -0.31832,-1.459031 -0.0711,-1.54704 -0.46409,-3.160469 -1.33594,-4.462889 -0.87184,-1.30243 -2.29405,-2.269601 -4.1582,-2.326182 -1.36285,-0.0414 -2.55135,0.60008 -3.48633,1.507821 -0.93498,0.90773 -1.66161,2.09024 -2.21875,3.30078 -0.85685,1.861751 -1.79237,2.56403 -2.72656,2.738281 -0.93419,0.17425 -2.0494,-0.202422 -3.21094,-1 -1.45861,-1.00157 -2.91284,-1.844392 -4.48047,-1.869141 -1.56762,-0.02471 -3.08311,0.912619 -4.30469,2.95117 -0.95518,1.594001 -1.68573,1.93171 -2.51171,1.92187 -0.82599,-0.01 -1.91382,-0.53376 -3.1875,-1.18554 -1.91586,-0.9804 -3.79122,-1.149821 -5.25782,-0.339849 -1.46659,0.80998 -2.35794,2.508059 -2.57031,4.789069 -0.36456,3.91559 2.83299,6.652811 5.875,6.724611 l 10.02344,0.238278 c 3.47577,0.0908 6.82981,0.290193 9.67383,1.50976 0.60913,0.26121 1.04891,0.54855 1.24414,0.751962 0.18399,0.191699 0.15344,0.1666 0.12695,0.22461 -1.16103,2.33575 -2.67985,3.415829 -4.48047,3.828119 -1.81578,0.415761 -3.96557,0.104809 -6.16601,-0.580081 -7.59891,-2.365168 -15.81022,-3.480779 -22.00782,-0.01759 -0.54369,0.303821 -1.22987,0.492252 -1.57617,0.443362 -0.17315,-0.02439 -0.24881,-0.0661 -0.33008,-0.16601 -0.0813,-0.100002 -0.18318,-0.31065 -0.20507,-0.73828 l -0.20313,-3.986332 -0.0879,-10.78125 c -0.012,-1.476898 1.30265,-3.83614 3.1875,-5.111329 1.43504,-0.97087 3.11079,-1.167119 4.99414,-0.810551 2.80858,0.53176 5.54293,-0.0282 8.11524,-3.025389 1.44517,-1.683879 3.5122,-2.52173 6.13476,-2.261721 1.59561,0.158199 3.64456,0.38518 5.58594,0.19727 1.94138,-0.18791 3.87132,-0.81629 4.9375,-2.503911 0.94135,-1.489999 1.09388,-3.428899 0.66211,-5.238279 -0.43178,-1.80938 -1.46622,-3.52935 -3.10156,-4.5 -1.83027,-1.08633 -3.87009,-1.49862 -6.30665,-1.65039 -0.57862,-0.036 -0.93908,-0.26863 -1.3164,-0.73828 -0.37732,-0.46965 -0.70841,-1.18353 -1.01367,-1.99609 -1.05013,-2.79529 -3.44491,-3.95462 -5.92188,-3.99805 -2.47697,-0.0434 -5.10999,0.86731 -7.23242,2.00195 -1.42409,0.76133 -2.74524,1.11195 -3.77148,1.01563 -1.02625,-0.0963 -1.78953,-0.55211 -2.38672,-1.67578 -1.09954,-2.06886 -3.0685,-3.03459 -5.13086,-3.0586 z" id="path932"/>
    <path style="color:#000000;font-style:normal;font-variant:normal;font-weight:normal;font-stretch:normal;font-size:medium;line-height:normal;font-family:sans-serif;font-variant-ligatures:normal;font-variant-position:normal;font-variant-caps:normal;font-variant-numeric:normal;font-variant-alternates:normal;font-variant-east-asian:normal;font-feature-settings:normal;font-variation-settings:normal;text-indent:0;text-align:start;text-decoration:none;text-decoration-line:none;text-decoration-style:solid;text-decoration-color:#000000;letter-spacing:normal;word-spacing:normal;text-transform:none;writing-mode:lr-tb;direction:ltr;text-orientation:mixed;dominant-baseline:auto;baseline-shift:baseline;text-anchor:start;white-space:normal;shape-padding:0;shape-margin:0;inline-size:0;clip-rule:nonzero;display:inline;overflow:visible;visibility:visible;opacity:1;isolation:auto;mix-blend-mode:normal;color-interpolation:sRGB;color-interpolation-filters:linearRGB;solid-color:#000000;solid-opacity:1;vector-effect:none;fill:#009639;fill-opacity:1;fill-rule:nonzero;stroke:none;stroke-width:1.5;stroke-linecap:round;stroke-linejoin:round;stroke-miterlimit:4;stroke-dasharray:none;stroke-dashoffset:0;stroke-opacity:1;paint-order:stroke fill markers;color-rendering:auto;image-rendering:auto;shape-rendering:auto;text-rendering:auto;enable-background:accumulate;stop-color:#000000" d="m 109.93521,179.73692 c -0.56456,-4.48712 -0.58471,-8.97694 -0.83322,-13.46137 -0.16946,-3.05783 0.7463,-5.88225 3.00723,-7.93661 1.91167,-1.73701 4.29163,-3.47401 6.52031,-5.21102 -0.97861,-1.16604 -1.32544,-2.03505 -1.83301,-2.93284 -2.19004,1.54061 -4.4598,3.01412 -6.83456,4.39925 -0.4843,-5.86262 -0.51117,-11.88099 -0.3928,-18.04218 0.13445,-6.99813 5.07304,-8.8797 8.80949,-7.73514 2.95591,0.90547 5.7016,2.86532 8.18422,4.96237 l 8.11871,6.85779 c 3.63575,3.07108 7.16323,6.29639 10.91958,9.26986 3.61203,2.81627 7.36929,3.47949 11.23382,2.88047 4.30396,-0.66714 7.74215,-2.26196 10.7338,-4.38429 0.48764,-0.36197 0.77278,-0.29303 1.14204,0.0762 2.47657,2.50698 5.34214,4.10012 8.62384,4.83468 3.60594,0.80714 6.72394,0.65552 9.35075,-0.85176 1.139,-0.65356 2.21606,-1.43635 2.79597,-2.70338 0.71993,-1.57298 0.23637,-3.03668 -1.75905,-3.03668 -2.43325,0 -3.05333,-1.29511 -1.09247,-3.07371 2.58994,-2.34922 2.60258,-3.94211 1.37284,-5.51655 -1.12456,-1.43979 -3.27559,-1.74477 -5.44643,-0.61236 -1.10891,0.57846 -2.45764,1.28995 -3.58695,1.10117 -2.18909,-0.36594 -1.06175,-2.61322 0.44439,-3.9988 2.5832,-2.37643 1.65127,-5.53041 -0.21584,-6.84223 -2.70893,-1.90329 -7.13965,-0.55757 -9.4455,3.07077 -1.2146,1.91123 -3.64382,2.36865 -4.09269,-0.21649 -0.4208,-2.81601 -3.64023,-5.15911 -6.54652,-1.67591 -3.33854,4.00126 -5.97591,3.80639 -8.30097,1.17838 -2.07011,-2.33984 -5.55308,-2.97525 -7.64633,-1.30931 -1.52362,1.21259 -2.25923,3.73439 -1.07363,6.15372 1.71985,3.50953 5.19509,4.27952 8.58903,4.97535 4.53461,0.92969 9.29673,1.16085 13.08278,3.9719 0.64347,0.45232 0.72348,0.87458 0.17765,1.45827 -2.9903,3.18875 -6.79639,4.18743 -10.84683,3.41436 -5.27488,-1.00677 -9.79428,-4.97282 -13.70537,-8.73189 l -7.06466,-6.79007 c -2.48099,-2.38457 -5.11543,-4.11051 -7.80344,-6.0228 6.02852,0.45046 11.08784,-0.46535 14.95224,-3.06377 2.2694,-1.52594 3.84838,-3.27578 5.4467,-5.02772 2.4452,-2.23199 4.82809,-1.71105 7.14879,-0.81177 3.18901,1.23576 5.246,2.6658 7.64632,3.92791 2.57599,1.35447 6.21624,1.95254 8.6414,0.39279 2.30256,-1.48089 3.77233,-4.97576 3.06377,-7.62014 -0.46066,-1.7192 -2.07505,-2.24025 -3.35182,-1.78065 -1.93384,0.69612 -3.15675,-0.11487 -1.64972,-2.74954 1.14449,-2.00086 -0.41461,-3.91624 -1.85921,-4.89679 -2.5846,-1.75433 -4.01316,-1.41963 -6.86074,0.10475 -3.46009,1.85227 -5.17947,0.49364 -4.94917,-2.90666 0.1529,-2.25755 0.26579,-4.050306 -1.17837,-4.922968 -3.45245,-2.086208 -6.9767,0.656352 -8.64139,3.770788 -1.48363,2.77569 -3.17407,4.92583 -6.41559,1.70209 -2.84308,-2.82748 -5.6773,-3.36949 -8.40572,-0.0786 -3.1083,3.74912 -4.85243,1.33806 -6.54651,-1.62353 -1.96822,-3.440847 -5.81282,-2.952918 -7.3321,0.91651 -0.88956,2.2656 0.66643,7.60951 3.08996,10.21256 2.43443,2.61476 5.28305,4.02497 9.79358,3.74461 3.34501,-0.20792 6.6338,-1.26454 9.9507,-1.44024 1.36537,-0.0723 3.31746,0.3233 2.48767,2.35675 -1.16922,2.86525 -3.75786,4.55705 -6.91311,5.4467 -3.31731,0.93534 -6.8664,1.48589 -9.84015,-0.3391 -3.08923,-1.89586 -6.49936,-1.61314 -10.40167,-0.31556 -1.74985,0.58185 -3.3879,1.44606 -3.43037,-1.64972 l -0.23568,-17.17805 c -0.0604,-4.400647 1.35796,-7.696067 4.55638,-9.086558 6.24055,-2.713019 14.41207,0.14465 20.21563,1.466421 3.59971,0.8234 7.06657,0.91189 10.21256,-0.54991 2.3415,-1.08799 4.17123,-2.750801 5.89186,-4.503999 0.74225,-0.756301 1.71991,-0.687242 2.98921,-0.264552 4.50999,1.593292 9.26034,3.40174 13.71749,3.249761 3.67967,-0.12546 7.37044,-0.677651 8.95563,-3.82316 1.09021,-2.163321 0.47996,-3.96603 -0.96889,-5.23721 -1.30101,-1.141461 -3.20598,-1.223341 -5.08009,-1.073629 -2.7265,0.217799 -3.55448,-1.000562 -2.85428,-2.93284 0.87858,-2.42452 1.20705,-4.411631 -0.34042,-5.839492 -2.17674,-2.008489 -4.2539,-0.884809 -6.33702,-0.130929 -2.66656,0.96503 -4.49396,0.81372 -4.63493,-2.252001 -0.13248,-2.881249 -1.50511,-5.9762 -4.76586,-6.075159 -2.23717,-0.0679 -3.94121,2.069208 -5.00154,4.37307 -1.83513,3.98734 -4.53852,3.762949 -7.04405,2.04251 -2.84158,-1.951191 -5.43297,-2.96318 -7.71751,0.849219 -2.06184,3.440761 -4.14493,2.31792 -6.6844,1.0184 -3.54896,-1.81611 -6.34398,-0.401529 -6.73994,3.851392 -0.32369,3.476648 2.54766,5.84536 5.14753,5.906719 l 10.0239,0.236551 c 3.48992,0.0912 6.94028,0.280239 9.9507,1.57117 1.32281,0.567248 2.05785,1.238729 1.7821,1.951088 -2.48805,5.07805 -7.0377,5.091361 -11.57568,3.678912 -7.51392,-2.338721 -15.53399,-3.367802 -21.42019,-0.0786 -1.26457,0.706651 -3.11554,1.067321 -3.22537,-1.077349 l -0.205,-4.002741 -0.088,-10.796591 c -0.0152,-1.869228 1.43167,-4.328498 3.5181,-5.740058 1.62482,-1.09927 3.53741,-1.307791 5.5549,-0.92582 2.65337,0.50237 4.96183,0.0711 7.40654,-2.77745 1.60093,-1.86536 3.95111,-2.798389 6.77698,-2.518219 3.20102,0.317359 8.03396,0.860149 9.81611,-1.960732 1.59629,-2.52668 0.64038,-7.01466 -2.18987,-8.69454 -1.69222,-1.004399 -3.5911,-1.39677 -5.97039,-1.54497 -1.59276,-0.0992 -2.35452,-1.542079 -2.98521,-3.22089 -1.899,-5.05486 -8.02089,-3.77694 -12.09795,-1.59735 -3.01287,1.61069 -5.78528,1.64595 -7.17498,-0.96888 -1.95635,-3.68102 -6.58307,-3.1988 -10.186367,-0.65465 -2.794548,1.97313 -5.206809,2.58344 -8.06531,1.02126 -2.747118,-1.50132 -4.509238,-0.34951 -5.734737,2.06869 -0.496801,0.98031 -0.573252,2.036781 -1.047451,3.011401 -1.460781,3.002319 -4.083341,2.221839 -6.1799,2.749529 -2.775392,0.69856 -5.207971,2.473121 -5.47289,5.813311 -0.20383,2.56992 1.05488,5.097519 4.320699,5.86567 3.40882,0.801788 6.972249,-1.00145 10.683912,-1.83302 3.064528,-0.68658 5.174739,0.661861 5.787117,3.351811 0.726302,2.491459 2.766412,3.919259 6.284647,4.189769 0.87934,0.0676 1.64605,0.612849 2.10798,1.296239 0.76866,1.137161 0.69904,2.646791 0.69394,4.058841 l 0.26186,11.77063 c 0.0544,2.44363 -0.88641,4.184361 -2.61861,3.11614 -2.163696,-1.33432 -4.659807,-2.447419 -7.148795,-2.644791 -3.669372,-0.29098 -6.876891,0.48844 -10.115262,1.247881 -3.58099,0.839801 -7.440279,1.00421 -11.331998,-0.48142 -4.020942,-1.534961 -3.70591,-6.12966 0,-6.517751 2.420009,-0.34199 4.698309,0.36902 7.017689,0.55549 l 8.9305,0.717982 c 2.02383,0.162708 3.868161,-0.473652 5.420511,-1.754461 1.46091,-1.205359 2.073158,-3.019761 1.51879,-4.504002 -0.428471,-1.147159 -0.883412,-2.233239 -3.16851,-1.859208 -2.57983,0.42227 -4.00182,-0.317931 -4.792051,-2.042509 -1.26922,-2.769931 -3.93968,-4.40944 -8.065299,-2.147261 -2.28695,1.25399 -4.40486,2.11187 -6.02279,-0.9427 -1.261131,-2.380961 -2.43903,-4.76079 -6.310842,-5.472879 -4.0714,-0.748811 -6.139608,1.203838 -7.674599,3.710429 -2.843181,4.642829 -5.1211,3.92367 -7.85092,1.74054 -3.363691,-2.690061 -10.697189,1.11573 -9.48037,5.406769 0.70599,2.48961 0.0898,2.70566 -1.777561,3.25887 -3.863139,1.144471 -5.41147,4.0128 -3.55514,7.5917 1.995982,3.848132 6.10376,4.529251 10.183982,4.555022 4.80641,0.0303 8.81136,-1.938671 12.96144,-3.518112 0.67125,-0.255458 1.350039,-0.179869 1.89049,0.246131 2.649749,2.088629 5.645028,3.858361 9.75628,4.84586 3.97813,0.955529 8.170378,1.47112 13.183629,0.592529 4.43284,-0.77688 9.071229,-1.38788 13.42434,0.55549 2.971376,1.32651 5.124266,4.242282 5.179916,7.779976 l 0.23568,14.97842 c 0.0531,3.3723 -1.04018,4.36122 -2.8019,3.69225 -2.603986,-0.98879 -5.227915,-1.17225 -8.117675,-0.65466 -7.61523,1.36397 -13.47011,1.76255 -17.727962,1.17837 -1.92677,-0.26435 -4.298479,-0.89948 -4.373068,-2.59241 -0.167841,-3.80953 4.81234,-4.79973 7.62014,-4.55638 3.825259,0.35345 7.58529,0.61033 11.10288,-1.04744 2.3841,-1.12358 4.506749,-2.2892 5.368139,-4.76586 0.80363,-2.31062 0.877221,-4.61149 -0.49753,-6.70364 -1.303719,-1.98404 -3.65846,-2.02713 -5.15865,-0.81176 -1.91742,1.55339 -3.016671,2.69721 -4.56909,3.3353 -1.753319,0.72067 -2.733831,-0.27288 -3.48107,-2.66634 -1.57082,-5.031456 -6.2758,-3.432354 -7.92498,0.0741 -1.368959,2.91062 -4.023309,1.79521 -4.760121,0.51902 -0.601038,-1.04102 -0.806228,-2.47458 -1.146598,-3.592734 -0.654921,-2.151509 -3.231431,-4.221009 -5.534941,-3.40406 -1.729261,0.613291 -2.732529,2.328299 -2.592419,4.739684 0.13431,2.31137 -1.470062,4.84188 -4.60874,1.70209 -2.571081,-2.571994 -7.410122,-2.546324 -7.777261,2.40911 -0.183081,2.47105 -0.69342,3.85149 -3.639859,2.95903 -3.997201,-1.21072 -8.504611,0.30616 -6.49414,6.36321 1.082879,3.26246 4.053959,4.60252 7.593949,4.29451 3.714329,-0.32318 7.77118,-1.26096 10.99815,-1.83302 4.409181,-0.7692 7.639931,1.52764 10.186371,4.24217 4.219858,4.47467 10.179709,5.6802 16.942369,5.39433 l 8.757041,-0.37018 c -5.812332,0.6714 -10.709981,3.70205 -14.850102,8.12867 -5.82958,6.41024 -13.63463,15.44477 -21.219718,12.88736 -1.600642,-0.42954 -2.878331,-1.46147 -3.403452,-3.25836 -0.949219,-3.24807 4.55213,-4.78114 6.5727,-4.94916 2.4252,-0.17055 4.808651,-0.40732 7.201162,-1.33549 2.356519,-0.9142 4.460899,-2.12829 5.839489,-4.60874 0.854361,-1.5372 0.46087,-3.02496 -0.74875,-3.9387 -1.265801,-0.95616 -3.44234,-0.54492 -4.7587,-0.0555 -1.762051,0.65511 -3.878091,1.29622 -4.629089,-0.49995 -0.994522,-2.3786 -2.002862,-4.71979 -4.129141,-4.88831 -2.48345,-0.19683 -4.162851,2.88603 -5.661911,4.87846 -2.046169,2.71961 -4.85952,3.21741 -5.603809,-0.89033 -1.042929,-5.75598 -7.518979,-5.68788 -7.410651,1.15219 0.0522,3.29731 -1.49393,4.63208 -3.87554,2.6186 -4.029059,-3.40628 -7.064819,-0.0827 -6.206089,3.27326 0.39406,1.54002 0.68355,2.11893 -1.41405,2.33056 -8.119961,0.81922 -4.229651,12.00733 2.15684,11.35651 1.12382,-0.11452 1.92565,0.0773 2.14789,1.51834 0.57066,3.70022 3.427439,3.75497 6.665881,2.51822 2.985248,-1.14006 5.066448,-3.47419 6.7955,-6.14742 0.28747,-0.44445 0.50056,-0.83741 1.018389,-0.25923 1.737749,1.94027 3.885541,3.15534 6.213819,4.1011 3.810632,1.54789 6.777212,1.46569 9.65468,0.60205 4.688642,-1.40724 8.31233,-4.3899 11.539191,-7.74534 3.444679,-3.58195 6.431521,-6.92925 10.285211,-9.60315 3.15172,-2.18684 6.592258,-4.4042 10.301439,-5.13034 5.05483,-0.98958 9.338046,1.23923 9.480366,6.85104 l 0.25922,10.22102 c 0.0571,2.25178 -0.87982,2.47979 -1.5924,1.66647 -1.980135,-2.26013 -4.242987,-4.27513 -7.461145,-5.73595 l -1.093402,3.29179 c 3.130082,2.26169 5.940002,4.76867 7.443567,8.18422 2.12299,4.82263 2.02389,11.07568 1.83646,16.58831 l -0.41897,12.32169" id="path934"/>
    <path id="rect912" style="opacity:1;fill:#000000;stroke:none;stroke-width:0.1;stroke-linecap:round;stroke-linejoin:round" d="m 105.83331,176.12787 c -14.995686,0 -27.068126,12.07244 -27.068126,27.06812 v 1.99316 c -6.536481,-7.87588 -17.263369,-11.65543 -27.831359,-8.82375 -10.445782,2.79895 -17.797411,11.26905 -19.629811,21.20749 15.26358,25.74208 42.798709,43.10229 74.529296,43.10229 31.73057,0 59.2652,-17.36021 74.52877,-43.10229 -1.83239,-9.93844 -9.18352,-18.40854 -19.6293,-21.20749 -10.56804,-2.83168 -21.29488,0.94787 -27.83136,8.82375 v -1.99316 c 0,-14.99568 -12.07244,-27.06812 -27.06811,-27.06812 z"/>
    <path id="path953" style="opacity:1;fill:#fedb00;stroke:none;stroke-width:0.25;stroke-linecap:round;stroke-linejoin:round" d="m 105.83342,184.88704 -6.126235,21.20334 -13.796582,-7.6114 8.029491,14.55414 -18.581299,5.36866 18.581299,5.36815 -8.029491,14.55415 13.796582,-7.61142 6.126235,21.20335 6.12573,-21.20335 13.79657,7.61142 -8.02949,-14.55415 18.5813,-5.36815 -18.5813,-5.36866 8.02949,-14.55414 -13.79657,7.6114 z"/>
  </g>
<script xmlns=""/></svg>