<?xml version="1.0" encoding="UTF-8" standalone="no"?>
<svg xmlns:dc="http://purl.org/dc/elements/1.1/" xmlns:cc="http://creativecommons.org/ns#" xmlns:rdf="http://www.w3.org/1999/02/22-rdf-syntax-ns#" xmlns:svg="http://www.w3.org/2000/svg" xmlns="http://www.w3.org/2000/svg" xmlns:sodipodi="http://sodipodi.sourceforge.net/DTD/sodipodi-0.dtd" xmlns:inkscape="http://www.inkscape.org/namespaces/inkscape" width="499.99997" height="650" viewBox="0 0 132.29166 171.97917" version="1.1" id="svg847" sodipodi:docname="Nõmme.svg" inkscape:version="1.0.2 (e86c870879, 2021-01-15, custom)">
  <defs id="defs841"/>
  <sodipodi:namedview id="base" pagecolor="#ffffff" bordercolor="#666666" borderopacity="1.0" inkscape:pageopacity="0.0" inkscape:pageshadow="2" inkscape:zoom="3.959798" inkscape:cx="434.47142" inkscape:cy="453.11727" inkscape:document-units="px" inkscape:current-layer="layer1" inkscape:document-rotation="0" showgrid="false" inkscape:snap-smooth-nodes="true" inkscape:showpageshadow="false" borderlayer="true" units="px" inkscape:window-width="1920" inkscape:window-height="1017" inkscape:window-x="-8" inkscape:window-y="-4" inkscape:window-maximized="1" inkscape:snap-global="true" showguides="true"/>
  <metadata id="metadata844">
    <rdf:RDF>
      <cc:Work rdf:about="">
        <dc:format>image/svg+xml</dc:format>
        <dc:type rdf:resource="http://purl.org/dc/dcmitype/StillImage"/>
        <dc:title/>
      </cc:Work>
    </rdf:RDF>
  </metadata>
  <g inkscape:label="Layer 1" inkscape:groupmode="layer" id="layer1" transform="translate(-408.75292,-18.546218)">
    <g id="g1486" transform="matrix(1.1597612,0,0,1.1525862,-9.584645,-33.388384)" style="stroke-width:0.45769;stroke-miterlimit:4;stroke-dasharray:none">
      <path id="path1162" style="font-variation-settings:normal;opacity:1;vector-effect:none;fill:#007f60;fill-opacity:1;stroke:none;stroke-width:1.72985;stroke-linecap:butt;stroke-linejoin:miter;stroke-miterlimit:4;stroke-dasharray:none;stroke-dashoffset:0;stroke-opacity:1;stop-color:#000000;stop-opacity:1" d="M 1054.3926,10.357422 661.91992,469.0918 c 12.19916,12.2931 26.51514,23.16831 41.84961,33.76562 43.0091,29.72262 135.92774,69.64258 135.92774,69.64258 0,0 92.91867,-39.91996 135.92773,-69.64258 43.009,-29.72258 78.7676,-61.11894 78.7676,-122.21289 z" transform="matrix(0.26458334,0,0,0.26458334,195.57434,42.547709)"/>
      <path id="path1166" style="font-variation-settings:normal;opacity:1;vector-effect:none;fill:#9a7e54;fill-opacity:1;stroke:none;stroke-width:1.72985;stroke-linecap:butt;stroke-linejoin:miter;stroke-miterlimit:4;stroke-dasharray:none;stroke-dashoffset:0;stroke-opacity:1;stop-color:#000000;stop-opacity:1" d="M 625,10.357422 V 380.64453 c 0,39.31147 14.90376,66.26155 36.91992,88.44727 L 1054.3926,10.357422 Z" transform="matrix(0.26458334,0,0,0.26458334,195.57434,42.547709)"/>
      <path style="font-variation-settings:normal;opacity:1;vector-effect:none;fill:none;fill-opacity:1;stroke:#000000;stroke-width:0.45769;stroke-linecap:butt;stroke-linejoin:miter;stroke-miterlimit:4;stroke-dasharray:none;stroke-dashoffset:0;stroke-opacity:1;stop-color:#000000;stop-opacity:1" d="m 360.93893,45.288036 v 97.971644 c 0,16.16444 9.46138,24.47155 20.84085,32.33565 11.37949,7.86411 35.96432,18.42634 35.96432,18.42634 0,0 24.58483,-10.56223 35.96431,-18.42634 11.37947,-7.8641 20.84085,-16.17121 20.84085,-32.33565 V 45.288036 Z" id="path1156" sodipodi:nodetypes="csscsscc"/>
      <path style="font-variation-settings:normal;opacity:1;vector-effect:none;fill:none;fill-opacity:1;stroke:#000000;stroke-width:0.45769;stroke-linecap:butt;stroke-linejoin:miter;stroke-miterlimit:4;stroke-dasharray:none;stroke-dashoffset:0;stroke-opacity:1;stop-color:#000000;stop-opacity:1" d="M 474.54927,45.288036 370.70732,166.66158" id="path1160" sodipodi:nodetypes="cc"/>
      <g id="g1331" style="fill:#007f60;fill-opacity:1;stroke-width:0.45769;stroke-miterlimit:4;stroke-dasharray:none">
        <path id="path1247" style="font-variation-settings:normal;opacity:1;vector-effect:none;fill:#007f60;fill-opacity:1;stroke:#000000;stroke-width:1.72985;stroke-linecap:butt;stroke-linejoin:miter;stroke-miterlimit:4;stroke-dasharray:none;stroke-dashoffset:0;stroke-opacity:1;stop-color:#000000;stop-opacity:1" d="m 757.36914,40.697266 -7.74805,3.496093 V 78.75 c -9.51942,-3.463192 -8.72344,-12.457916 -8.57226,-20.892578 l -6.58399,-3.214844 -6.05078,3.058594 c 0,0 -2.40844,16.442833 3.59375,26 6.00219,9.55717 17.61328,9.513672 17.61328,9.513672 v 12.429686 c -10.27702,-2.32677 -16.67785,-5.63908 -21.45117,-19.755858 l -7.3418,-2.457031 -5.67187,4.572265 c 0,0 1.04533,12.900054 9.6543,22.214844 8.609,9.31479 24.81054,11.02734 24.81054,11.02734 v 52.94336 c -5.60436,-5.26443 -7.72518,-13.4159 -9.43164,-27.71679 l -6.6289,-4.74414 c 2.2193,-10.09767 -0.86914,-23.04102 -0.86914,-23.04102 l -6.35157,-2.36914 -6.18945,3.92383 c 1.0845,8.36602 2.87413,18.73222 -6.20312,23.22851 l -3.82813,-34.34179 -8.08789,-2.61914 -7.31445,4.33398 3.82812,34.34375 c -9.84442,-2.38747 -11.94254,-15.20401 -12.72656,-23.60352 l -6.52148,-2.46484 -6.43165,3.33008 c 0,0 0.56207,22.29146 7.58594,31.125 7.02384,8.83353 19.69531,8.26172 19.69531,8.26172 0,0 1.73308,8.03706 4.32032,17.38476 2.34148,11.47053 1.93392,23.20123 -4.46289,27.88672 -4.04036,-11.2749 -7.3375,-20.84222 -9.50196,-33.17773 l -7.6582,-1.19336 -6.8418,4.00976 c 1.35205,10.2783 5.00979,23.03446 9.12305,34.69336 -15.34957,0.64588 -15.50015,-16.13201 -16.58594,-24.82226 l -6.84765,-1.31055 -5.76563,3.3125 c 0,0 -0.83792,19.55105 9.06055,30.9707 9.89851,11.41969 25.10547,7.97657 25.10547,7.97657 6.58208,17.1905 14.39642,29.28367 41.20117,34.35742 l 5.86523,-4.58789 h 16.28907 l -1,26.45898 c 0,0 1.18721,3.01563 4.92187,3.01563 3.73466,-10e-6 4.92383,-3.01563 4.92383,-3.01563 l -1,-26.45898 h 16.28906 l 5.86524,4.58789 c 26.80475,-5.07375 34.61909,-17.16692 41.20117,-34.35742 0,0 15.20697,3.44312 25.10547,-7.97657 9.89847,-11.41964 9.06054,-30.9707 9.06054,-30.9707 l -5.76562,-3.3125 -6.84766,1.31055 c -1.08578,8.69025 -1.23637,25.46814 -16.58594,24.82226 4.11326,-11.6589 7.771,-24.41506 9.12305,-34.69336 l -6.8418,-4.00976 -7.6582,1.19336 c -2.16446,12.33551 -5.4616,21.90283 -9.50195,33.17773 -6.39682,-4.68549 -6.80438,-16.41619 -4.46289,-27.88672 2.58724,-9.3477 4.32031,-17.38476 4.32031,-17.38476 0,0 12.67147,0.57181 19.69531,-8.26172 7.02387,-8.83354 7.58594,-31.125 7.58594,-31.125 l -6.43164,-3.33008 -6.52148,2.46484 c -0.78404,8.39951 -2.88215,21.21605 -12.72657,23.60352 l 3.82813,-34.34375 -7.31446,-4.33398 -8.08789,2.61914 -3.82812,34.34179 c -9.07725,-4.49629 -7.28763,-14.86249 -6.20313,-23.22851 l -6.18945,-3.92383 -6.35156,2.36914 c 0,0 -3.08844,12.94335 -0.86914,23.04102 l -6.62891,4.74414 c -1.70646,14.30089 -3.82728,22.45236 -9.43164,27.71679 v -52.94336 c 0,0 16.20158,-1.71255 24.81055,-11.02734 8.60897,-9.31479 9.65429,-22.214844 9.65429,-22.214844 l -5.67187,-4.572265 -7.3418,2.457031 c -4.77332,14.116778 -11.17414,17.429088 -21.45117,19.755858 V 93.214844 c 0,0 11.61109,0.0435 17.61328,-9.513672 6.00219,-9.55717 3.59375,-26 3.59375,-26 l -6.05078,-3.058594 -6.58398,3.214844 c 0.15119,8.434662 0.94715,17.429386 -8.57227,20.892578 V 44.193359 Z M 727.40625,152.70117 c 0.65076,6.96854 2.20759,18.61667 5.83008,26.84961 5.45287,12.39286 15.6914,17.23438 15.6914,17.23438 -9.0379,3.73299 -19.23513,-3.15681 -24.64843,-12.05274 -5.41331,-8.89592 -8.71289,-25.38086 -8.71289,-25.38086 0,0 6.51974,-1.55653 11.83984,-6.65039 z m 59.92773,0 c 5.32011,5.09386 11.83985,6.65039 11.83985,6.65039 0,0 -3.29955,16.48494 -8.71289,25.38086 -5.41327,8.89593 -15.61053,15.78573 -24.64844,12.05274 0,0 10.23853,-4.84152 15.69141,-17.23438 3.62248,-8.23294 5.17932,-19.88107 5.83007,-26.84961 z m -68.07031,54.02344 c 7.70539,5.86728 15.91406,6.84766 15.91406,6.84766 l 18.26954,24.44531 V 252.0332 H 738.9483 l -2.38189,-7.48828 c -17.51921,-2.93374 -23.01844,-6.90851 -30.63672,-22.07031 0,0 10.12935,-5.11987 13.33398,-15.75 z m 76.21289,0 c 3.20463,10.63012 13.33399,15.75 13.33399,15.75 -7.61828,15.1618 -13.11752,19.13657 -30.63672,22.07031 l -2.38189,7.48828 h -14.49897 v -14.01562 l 18.26953,-24.44531 c 0,0 8.20866,-0.98038 15.91406,-6.84766 z" transform="matrix(0.26458334,0,0,0.26458334,195.57434,42.547709)" sodipodi:nodetypes="ccccccscccccscccccccccccccccsccccccccccscccccscccccsccccccccccscccccccccccccccscccccscccccccscsccccccsccccccccccccccccc"/>
        <path style="font-variation-settings:normal;opacity:1;vector-effect:none;fill:#007f60;fill-opacity:1;stroke:#000000;stroke-width:0.45769;stroke-linecap:butt;stroke-linejoin:miter;stroke-miterlimit:4;stroke-dasharray:none;stroke-dashoffset:0;stroke-opacity:1;stop-color:#000000;stop-opacity:1" d="m 398.01184,96.479591 v 5.865649 c 2.01447,0 2.23714,-1.91366 2.86922,-4.425409 l 1.54195,-0.649994 1.40021,1.109609 c 0,0 -0.6392,5.509374 -1.55201,6.979704 -0.91282,1.47033 -4.26236,1.51468 -6.30948,1.51468 -2.04712,0 -5.39666,-0.0444 -6.30948,-1.51468 -0.91281,-1.47032 -1.55201,-6.979704 -1.55201,-6.979704 l 1.40021,-1.109609 1.54195,0.649994 c 0.63208,2.511749 0.85475,4.425409 2.86922,4.425409 v -5.865649 l 2.05011,-0.925314 z" id="path1321" sodipodi:nodetypes="zcccczzzcccczcz"/>
        <path id="path1325" style="font-variation-settings:normal;vector-effect:none;fill:none;fill-opacity:1;stroke:#000000;stroke-width:0.45769;stroke-linecap:butt;stroke-linejoin:miter;stroke-miterlimit:4;stroke-dasharray:none;stroke-dashoffset:0;stroke-opacity:1;stop-color:#000000" d="m 402.30559,80.014599 1.70089,1.365822 c 0,0 -0.0258,0.641401 -0.11866,1.616303 m 2.12778,14.161883 c -0.81803,-2.871759 0.51177,-7.974687 0.51177,-7.974687 l 2.04644,-0.471055 1.38517,1.25344 m -20.34111,-9.951706 -1.70089,1.365822 c 0,0 0.0258,0.641401 0.11866,1.616303 m -2.12778,14.161883 c 0.81803,-2.871759 -0.51177,-7.974687 -0.51177,-7.974687 l -2.04644,-0.471055 -1.38517,1.25344 m 11.94714,-10.067679 2.05011,-0.925314 2.05011,0.925314"/>
      </g>
      <g id="g1384" transform="translate(43.65625,51.593751)" style="fill:#9a7e54;fill-opacity:1;stroke-width:0.45769;stroke-miterlimit:4;stroke-dasharray:none">
        <path id="path1378" style="font-variation-settings:normal;opacity:1;vector-effect:none;fill:#9a7e54;fill-opacity:1;stroke:#000000;stroke-width:1.72985;stroke-linecap:butt;stroke-linejoin:miter;stroke-miterlimit:4;stroke-dasharray:none;stroke-dashoffset:0;stroke-opacity:1;stop-color:#000000;stop-opacity:1" d="m 757.36914,40.697266 -7.74805,3.496093 V 78.75 c -9.51942,-3.463192 -8.72344,-12.457916 -8.57226,-20.892578 l -6.58399,-3.214844 -6.05078,3.058594 c 0,0 -2.40844,16.442833 3.59375,26 6.00219,9.55717 17.61328,9.513672 17.61328,9.513672 v 12.429686 c -10.27702,-2.32677 -16.67785,-5.63908 -21.45117,-19.755858 l -7.3418,-2.457031 -5.67187,4.572265 c 0,0 1.04533,12.900054 9.6543,22.214844 8.609,9.31479 24.81054,11.02734 24.81054,11.02734 v 52.94336 c -5.60436,-5.26443 -7.72518,-13.4159 -9.43164,-27.71679 l -6.6289,-4.74414 c 2.2193,-10.09767 -0.86914,-23.04102 -0.86914,-23.04102 l -6.35157,-2.36914 -6.18945,3.92383 c 1.0845,8.36602 2.87413,18.73222 -6.20312,23.22851 l -3.82813,-34.34179 -8.08789,-2.61914 -7.31445,4.33398 3.82812,34.34375 c -9.84442,-2.38747 -11.94254,-15.20401 -12.72656,-23.60352 l -6.52148,-2.46484 -6.43165,3.33008 c 0,0 0.56207,22.29146 7.58594,31.125 7.02384,8.83353 19.69531,8.26172 19.69531,8.26172 0,0 1.73308,8.03706 4.32032,17.38476 2.34148,11.47053 1.93392,23.20123 -4.46289,27.88672 -4.04036,-11.2749 -7.3375,-20.84222 -9.50196,-33.17773 l -7.6582,-1.19336 -6.8418,4.00976 c 1.35205,10.2783 5.00979,23.03446 9.12305,34.69336 -15.34957,0.64588 -15.50015,-16.13201 -16.58594,-24.82226 l -6.84765,-1.31055 -5.76563,3.3125 c 0,0 -0.83792,19.55105 9.06055,30.9707 9.89851,11.41969 25.10547,7.97657 25.10547,7.97657 6.58208,17.1905 14.39642,29.28367 41.20117,34.35742 l 5.86523,-4.58789 h 16.28907 l -1,26.45898 c 0,0 1.18721,3.01563 4.92187,3.01563 3.73466,-10e-6 4.92383,-3.01563 4.92383,-3.01563 l -1,-26.45898 h 16.28906 l 5.86524,4.58789 c 26.80475,-5.07375 34.61909,-17.16692 41.20117,-34.35742 0,0 15.20697,3.44312 25.10547,-7.97657 9.89847,-11.41964 9.06054,-30.9707 9.06054,-30.9707 l -5.76562,-3.3125 -6.84766,1.31055 c -1.08578,8.69025 -1.23637,25.46814 -16.58594,24.82226 4.11326,-11.6589 7.771,-24.41506 9.12305,-34.69336 l -6.8418,-4.00976 -7.6582,1.19336 c -2.16446,12.33551 -5.4616,21.90283 -9.50195,33.17773 -6.39682,-4.68549 -6.80438,-16.41619 -4.46289,-27.88672 2.58724,-9.3477 4.32031,-17.38476 4.32031,-17.38476 0,0 12.67147,0.57181 19.69531,-8.26172 7.02387,-8.83354 7.58594,-31.125 7.58594,-31.125 l -6.43164,-3.33008 -6.52148,2.46484 c -0.78404,8.39951 -2.88215,21.21605 -12.72657,23.60352 l 3.82813,-34.34375 -7.31446,-4.33398 -8.08789,2.61914 -3.82812,34.34179 c -9.07725,-4.49629 -7.28763,-14.86249 -6.20313,-23.22851 l -6.18945,-3.92383 -6.35156,2.36914 c 0,0 -3.08844,12.94335 -0.86914,23.04102 l -6.62891,4.74414 c -1.70646,14.30089 -3.82728,22.45236 -9.43164,27.71679 v -52.94336 c 0,0 16.20158,-1.71255 24.81055,-11.02734 8.60897,-9.31479 9.65429,-22.214844 9.65429,-22.214844 l -5.67187,-4.572265 -7.3418,2.457031 c -4.77332,14.116778 -11.17414,17.429088 -21.45117,19.755858 V 93.214844 c 0,0 11.61109,0.0435 17.61328,-9.513672 6.00219,-9.55717 3.59375,-26 3.59375,-26 l -6.05078,-3.058594 -6.58398,3.214844 c 0.15119,8.434662 0.94715,17.429386 -8.57227,20.892578 V 44.193359 Z M 727.40625,152.70117 c 0.65076,6.96854 2.20759,18.61667 5.83008,26.84961 5.45287,12.39286 15.6914,17.23438 15.6914,17.23438 -9.0379,3.73299 -19.23513,-3.15681 -24.64843,-12.05274 -5.41331,-8.89592 -8.71289,-25.38086 -8.71289,-25.38086 0,0 6.51974,-1.55653 11.83984,-6.65039 z m 59.92773,0 c 5.32011,5.09386 11.83985,6.65039 11.83985,6.65039 0,0 -3.29955,16.48494 -8.71289,25.38086 -5.41327,8.89593 -15.61053,15.78573 -24.64844,12.05274 0,0 10.23853,-4.84152 15.69141,-17.23438 3.62248,-8.23294 5.17932,-19.88107 5.83007,-26.84961 z m -68.07031,54.02344 c 7.70539,5.86728 15.91406,6.84766 15.91406,6.84766 l 18.26954,24.44531 V 252.0332 H 738.9483 l -2.38189,-7.48828 c -17.51921,-2.93374 -23.01844,-6.90851 -30.63672,-22.07031 0,0 10.12935,-5.11987 13.33398,-15.75 z m 76.21289,0 c 3.20463,10.63012 13.33399,15.75 13.33399,15.75 -7.61828,15.1618 -13.11752,19.13657 -30.63672,22.07031 l -2.38189,7.48828 h -14.49897 v -14.01562 l 18.26953,-24.44531 c 0,0 8.20866,-0.98038 15.91406,-6.84766 z" transform="matrix(0.26458334,0,0,0.26458334,195.57434,42.547709)" sodipodi:nodetypes="ccccccscccccscccccccccccccccsccccccccccscccccscccccsccccccccccscccccccccccccccscccccscccccccscsccccscsccccccccccccccccc"/>
        <path style="font-variation-settings:normal;opacity:1;vector-effect:none;fill:#9a7e54;fill-opacity:1;stroke:#000000;stroke-width:0.45769;stroke-linecap:butt;stroke-linejoin:miter;stroke-miterlimit:4;stroke-dasharray:none;stroke-dashoffset:0;stroke-opacity:1;stop-color:#000000;stop-opacity:1" d="m 398.01184,96.479591 v 5.865649 c 2.01447,0 2.23714,-1.91366 2.86922,-4.425409 l 1.54195,-0.649994 1.40021,1.109609 c 0,0 -0.6392,5.509374 -1.55201,6.979704 -0.91282,1.47033 -4.26236,1.51468 -6.30948,1.51468 -2.04712,0 -5.39666,-0.0444 -6.30948,-1.51468 -0.91281,-1.47032 -1.55201,-6.979704 -1.55201,-6.979704 l 1.40021,-1.109609 1.54195,0.649994 c 0.63208,2.511749 0.85475,4.425409 2.86922,4.425409 v -5.865649 l 2.05011,-0.925314 z" id="path1380" sodipodi:nodetypes="zcccczzzcccczcz"/>
        <path id="path1382" style="font-variation-settings:normal;vector-effect:none;fill:none;fill-opacity:1;stroke:#000000;stroke-width:0.45769;stroke-linecap:butt;stroke-linejoin:miter;stroke-miterlimit:4;stroke-dasharray:none;stroke-dashoffset:0;stroke-opacity:1;stop-color:#000000" d="m 402.30559,80.014599 1.70089,1.365822 c 0,0 -0.0258,0.641401 -0.11866,1.616303 m 2.12778,14.161883 c -0.81803,-2.871759 0.51177,-7.974687 0.51177,-7.974687 l 2.04644,-0.471055 1.38517,1.25344 m -20.34111,-9.951706 -1.70089,1.365822 c 0,0 0.0258,0.641401 0.11866,1.616303 m -2.12778,14.161883 c 0.81803,-2.871759 -0.51177,-7.974687 -0.51177,-7.974687 l -2.04644,-0.471055 -1.38517,1.25344 m 11.94714,-10.067679 2.05011,-0.925314 2.05011,0.925314"/>
      </g>
    </g>
  </g>
<script xmlns=""/></svg>