<?xml version="1.0" encoding="UTF-8" standalone="no"?>
<svg xmlns:dc="http://purl.org/dc/elements/1.1/" xmlns:cc="http://creativecommons.org/ns#" xmlns:rdf="http://www.w3.org/1999/02/22-rdf-syntax-ns#" xmlns:svg="http://www.w3.org/2000/svg" xmlns="http://www.w3.org/2000/svg" xmlns:sodipodi="http://sodipodi.sourceforge.net/DTD/sodipodi-0.dtd" xmlns:inkscape="http://www.inkscape.org/namespaces/inkscape" width="500" height="550" viewBox="0 0 132.29167 145.52084" version="1.1" id="svg847" sodipodi:docname="pirita.svg" inkscape:version="1.0.2 (e86c870879, 2021-01-15, custom)">
  <defs id="defs841"/>
  <sodipodi:namedview id="base" pagecolor="#ffffff" bordercolor="#666666" borderopacity="1.0" inkscape:pageopacity="0.0" inkscape:pageshadow="2" inkscape:zoom="0.77224764" inkscape:cx="157.63955" inkscape:cy="187.71011" inkscape:document-units="px" inkscape:current-layer="g2546" inkscape:document-rotation="0" showgrid="false" inkscape:snap-smooth-nodes="true" inkscape:showpageshadow="false" borderlayer="true" units="px" inkscape:window-width="1920" inkscape:window-height="1017" inkscape:window-x="-8" inkscape:window-y="-4" inkscape:window-maximized="1" inkscape:snap-global="true" showguides="true"/>
  <metadata id="metadata844">
    <rdf:RDF>
      <cc:Work rdf:about="">
        <dc:format>image/svg+xml</dc:format>
        <dc:type rdf:resource="http://purl.org/dc/dcmitype/StillImage"/>
        <dc:title/>
      </cc:Work>
    </rdf:RDF>
  </metadata>
  <g inkscape:label="Layer 1" inkscape:groupmode="layer" id="layer1" transform="translate(-355.99249,-44.889169)">
    <g id="g2546" transform="matrix(1.009346,0,0,1.0093405,-3.3297001,-0.42175862)" style="stroke-width:0.990743">
      <path id="path2299" style="font-variation-settings:normal;opacity:1;vector-effect:none;fill:#0f47af;fill-opacity:1;stroke:#000000;stroke-width:0.52427;stroke-linecap:butt;stroke-linejoin:miter;stroke-miterlimit:4;stroke-dasharray:none;stroke-dashoffset:0;stroke-opacity:1;stop-color:#000000;stop-opacity:1" d="m 480.87976,141.89753 c 0.50767,-2.58746 0.88261,-5.33216 1.11465,-8.26281 1.46497,-18.50175 4.79248,-88.480968 4.79248,-88.480968 H 356.26996 c 0,0 3.3275,69.979218 4.79247,88.480968 0.23205,2.93065 0.60699,5.67535 1.11466,8.26281 l 8.74002,20.86982 c 2.70232,3.88615 5.88139,7.44665 9.46608,10.92588 10.73673,10.42088 28.24814,15.11043 41.14523,15.11043 12.8971,0 30.4085,-4.68955 41.14524,-15.11043 3.58469,-3.47923 6.76375,-7.03973 9.46607,-10.92588 z" sodipodi:nodetypes="ccccsccssscc"/>
      <path id="path2397" style="font-variation-settings:normal;vector-effect:none;fill:#ffffff;fill-opacity:1;stroke:#000000;stroke-width:0.52427;stroke-linecap:butt;stroke-linejoin:miter;stroke-miterlimit:4;stroke-dasharray:none;stroke-dashoffset:0;stroke-opacity:1;stop-color:#000000" d="m 367.09719,140.77697 c -1.74302,0 -3.3614,0.45224 -4.9201,1.12056 1.62727,8.29384 4.63051,14.96001 8.74002,20.86982 4.93649,1.72064 9.15137,6.05963 14.5624,6.05967 6.74819,5e-5 11.63348,-6.75254 18.38179,-6.75265 6.50696,-10e-5 11.26723,6.7266 17.66712,6.72647 6.39989,-1.3e-4 11.15817,-6.72636 17.66504,-6.72647 6.74832,-10e-5 11.63556,6.75276 18.38388,6.75265 5.41128,-8e-5 9.62585,-4.33915 14.56239,-6.05967 4.10953,-5.90981 7.11276,-12.57598 8.74003,-20.86982 -1.55885,-0.6684 -3.17746,-1.12056 -4.92062,-1.12056 -6.74803,1e-5 -11.6335,6.75255 -18.3818,6.75265 -6.74832,1.1e-4 -11.63556,-6.75275 -18.38388,-6.75265 -6.50687,1.1e-4 -11.26515,6.72634 -17.66504,6.72647 -6.39989,1.3e-4 -11.16016,-6.72657 -17.66712,-6.72647 -6.74831,1.1e-4 -11.6336,6.7527 -18.38179,6.75265 -6.74819,-5e-5 -11.63427,-6.75266 -18.38232,-6.75265 z"/>
      <path id="path2427" style="opacity:1;fill:#ffffff;stroke:#000000;stroke-width:0.524269;stroke-linejoin:bevel;stroke-miterlimit:4;stroke-dasharray:none;paint-order:fill markers stroke" d="m 421.52843,47.761861 a 45.939473,45.939473 0 0 0 -45.93932,45.939317 45.939473,45.939473 0 0 0 45.93932,45.939312 45.939473,45.939473 0 0 0 45.93931,-45.939312 45.939473,45.939473 0 0 0 -45.93931,-45.939317 z m -6.64301,14.761373 v 24.534939 h -24.53494 a 31.878321,31.878321 0 0 1 24.53494,-24.534939 z m 13.28601,0 a 31.878321,31.878321 0 0 1 24.53494,24.534939 h -24.53494 z m -37.82095,37.820946 h 24.53494 v 24.53494 a 31.878321,31.878321 0 0 1 -24.53494,-24.53494 z m 37.82095,0 h 24.53494 a 31.878321,31.878321 0 0 1 -24.53494,24.53494 z"/>
      <path id="circle2431" style="opacity:1;fill:#da121a;fill-opacity:1;stroke:#000000;stroke-width:0.524267;stroke-linejoin:bevel;stroke-miterlimit:4;stroke-dasharray:none;paint-order:fill markers stroke" d="m 421.52842,50.125024 a 6.6427733,6.6427733 0 0 0 -6.643,6.642489 6.6427733,6.6427733 0 0 0 6.643,6.643006 6.6427733,6.6427733 0 0 0 6.64301,-6.643006 6.6427733,6.6427733 0 0 0 -6.64301,-6.642489 z m -37.00033,36.933665 a 6.6427733,6.6427733 0 0 0 -6.57582,6.642489 6.6427733,6.6427733 0 0 0 6.64249,6.643002 6.6427733,6.6427733 0 0 0 6.643,-6.643002 6.6427733,6.6427733 0 0 0 -6.643,-6.642489 6.6427733,6.6427733 0 0 0 -0.0667,0 z m 36.93367,0 a 6.6427733,6.6427733 0 0 0 -6.57583,6.642489 6.6427733,6.6427733 0 0 0 6.64249,6.643002 6.6427733,6.6427733 0 0 0 6.64301,-6.643002 6.6427733,6.6427733 0 0 0 -6.64301,-6.642489 6.6427733,6.6427733 0 0 0 -0.0667,0 z m 37.00033,0 a 6.6427733,6.6427733 0 0 0 -6.64301,6.642489 6.6427733,6.6427733 0 0 0 6.64301,6.643002 6.6427733,6.6427733 0 0 0 6.64249,-6.643002 6.6427733,6.6427733 0 0 0 -6.64249,-6.642489 z m -36.93367,36.933141 a 6.6427733,6.6427733 0 0 0 -6.643,6.64301 6.6427733,6.6427733 0 0 0 6.643,6.64249 6.6427733,6.6427733 0 0 0 6.64301,-6.64249 6.6427733,6.6427733 0 0 0 -6.64301,-6.64301 z"/>
    </g>
  </g>
<script xmlns=""/></svg>