<?xml version="1.0" encoding="UTF-8" standalone="no"?>
<svg xmlns:dc="http://purl.org/dc/elements/1.1/" xmlns:cc="http://creativecommons.org/ns#" xmlns:rdf="http://www.w3.org/1999/02/22-rdf-syntax-ns#" xmlns:svg="http://www.w3.org/2000/svg" xmlns="http://www.w3.org/2000/svg" xmlns:sodipodi="http://sodipodi.sourceforge.net/DTD/sodipodi-0.dtd" xmlns:inkscape="http://www.inkscape.org/namespaces/inkscape" width="500" height="565" id="svg2" version="1.1" inkscape:version="1.0.2 (e86c870879, 2021-01-15, custom)" sodipodi:docname="pohja-tallinn.svg">
  <defs id="defs4"/>
  <sodipodi:namedview id="base" pagecolor="#ffffff" bordercolor="#666666" borderopacity="1.0" inkscape:pageopacity="0.0" inkscape:pageshadow="2" inkscape:zoom="0.70820725" inkscape:cx="427.55793" inkscape:cy="202.29569" inkscape:document-units="px" inkscape:current-layer="layer1" showgrid="false" inkscape:window-width="1920" inkscape:window-height="1017" inkscape:window-x="-8" inkscape:window-y="-4" inkscape:window-maximized="1" inkscape:snap-page="false" fit-margin-top="0" fit-margin-left="0" fit-margin-right="0" fit-margin-bottom="0" inkscape:document-rotation="0"/>
  <metadata id="metadata7">
    <rdf:RDF>
      <cc:Work rdf:about="">
        <dc:format>image/svg+xml</dc:format>
        <dc:type rdf:resource="http://purl.org/dc/dcmitype/StillImage"/>
        <dc:title/>
      </cc:Work>
    </rdf:RDF>
  </metadata>
  <g inkscape:label="Layer 1" inkscape:groupmode="layer" id="layer1" transform="translate(-100.69096,-422.5371)">
    <g id="g923" transform="matrix(2.3539027,0,0,2.3539027,-136.32576,-572.07407)" style="stroke-width:0.424826">
      <path style="font-variation-settings:normal;opacity:1;vector-effect:none;fill:#003bb2;fill-opacity:1;stroke:none;stroke-width:0.424826;stroke-linecap:butt;stroke-linejoin:miter;stroke-miterlimit:4;stroke-dasharray:none;stroke-dashoffset:0;stroke-opacity:1;stop-color:#000000;stop-opacity:1" d="m 313.10416,422.53708 c 0,0 -8.12334,108.08088 -13.85344,160.39357 -5.73011,52.3127 -55.88812,79.63335 -92.35316,79.63335 -36.46504,0 -86.62305,-27.32065 -92.35316,-79.63335 -5.7301,-52.31269 -13.85344,-160.39357 -13.85344,-160.39357 z" id="path904" sodipodi:nodetypes="cszscc"/>
      <path id="path865" style="fill:#e6e6e6;fill-opacity:1;stroke:none;stroke-width:1.27448;stroke-linecap:round;stroke-linejoin:bevel;paint-order:fill markers stroke" inkscape:transform-center-x="-1.5551546e-06" inkscape:transform-center-y="-0.65155613" d="m 206.89756,426.31444 -5.68222,21.06077 -11.90115,-8.50124 8.50124,11.90115 -21.06076,5.68221 21.06076,5.68221 -8.50124,11.90116 11.90115,-8.50125 5.68222,21.06078 5.6822,-21.06078 11.90117,8.50125 -8.50125,-11.90116 21.06077,-5.68221 -21.06077,-5.68221 8.50125,-11.90115 -11.90117,8.50124 z"/>
      <path style="font-variation-settings:normal;opacity:1;vector-effect:none;fill:#e6e6e6;fill-opacity:1;stroke:none;stroke-width:0.424825;stroke-linecap:butt;stroke-linejoin:miter;stroke-miterlimit:4;stroke-dasharray:none;stroke-dashoffset:0;stroke-opacity:1;stop-color:#000000;stop-opacity:1" d="m 298.10934,581.78995 c -5.6593,51.66617 -55.19741,79.0248 -91.21178,79.0248 -36.01437,0 -85.55249,-27.35863 -91.21178,-79.0248 l 91.21178,-91.15703 z" id="path906" sodipodi:nodetypes="czccc"/>
      <path id="path883" style="font-variation-settings:normal;vector-effect:none;fill:#003bb2;fill-opacity:1;stroke:none;stroke-width:0.424826;stroke-linecap:butt;stroke-linejoin:miter;stroke-miterlimit:4;stroke-dasharray:none;stroke-dashoffset:0;stroke-opacity:1;stop-color:#000000" d="m 191.36909,533.22095 c -4.4e-4,6.66762 4.25564,12.59133 10.5749,14.71836 v 13.53543 H 182.5368 v 6.16591 h 19.40719 v 58.20412 c -22.04102,0.18768 -36.87116,-17.01078 -43.29334,-32.24941 0,19.62417 15.52281,45.33329 48.24771,45.33329 32.72487,0 48.2461,-25.70912 48.2461,-45.33329 -6.42218,15.23863 -21.25073,32.43698 -43.29176,32.24941 v -58.20412 h 19.40561 v -6.16591 H 211.8527 v -13.53702 c 6.31808,-2.12739 10.57331,-8.05014 10.57332,-14.71677 -5.7e-4,-8.57548 -6.9522,-15.52711 -15.58173,-15.47921 -8.62952,0.0479 -15.4752,6.97158 -15.4752,15.47921 z m 15.49506,-9.66507 c 5.38873,-0.03 9.72931,4.31053 9.72985,9.66507 3.3e-4,5.35515 -4.3405,9.69669 -9.69564,9.69723 -5.35579,3.4e-4 -9.69758,-4.34146 -9.69725,-9.69723 1.7e-4,-5.312 4.27429,-9.63503 9.66304,-9.66507 z" sodipodi:nodetypes="ccccccccsccccccccccccccc"/>
    </g>
  </g>
<script xmlns=""/></svg>